<svg width="24" height="24" viewBox="0 0 24 24" fill="none" xmlns="http://www.w3.org/2000/svg">
<g clip-path="url(#clip0_22_672)">
<path d="M19.915 13.028C19.527 12.538 19.638 12.32 19.915 11.882C19.92 11.877 23.123 7.451 23.453 5.95L23.455 5.949C23.619 5.402 23.455 5 22.662 5H20.038C19.37 5 19.062 5.345 18.897 5.731C18.897 5.731 17.561 8.929 15.671 11.002C15.061 11.601 14.779 11.793 14.446 11.793C14.282 11.793 14.027 11.601 14.027 11.054V5.949C14.027 5.293 13.84 5 13.287 5H9.161C8.742 5 8.493 5.306 8.493 5.591C8.493 6.213 9.438 6.356 9.536 8.106V11.903C9.536 12.735 9.385 12.888 9.05 12.888C8.158 12.888 5.993 9.677 4.71 6.002C4.451 5.289 4.198 5.001 3.525 5.001H0.9C0.151 5.001 0 5.346 0 5.732C0 6.414 0.892 9.805 4.148 14.285C6.318 17.343 9.374 19 12.154 19C13.825 19 14.029 18.632 14.029 17.999C14.029 15.077 13.878 14.801 14.715 14.801C15.103 14.801 15.771 14.993 17.331 16.468C19.114 18.217 19.407 19 20.405 19H23.029C23.777 19 24.156 18.632 23.938 17.906C23.439 16.379 20.067 13.238 19.915 13.028Z" fill="#F3F3F3"/>
</g>
<defs>
<clipPath id="clip0_22_672">
<rect width="24" height="24" fill="white"/>
</clipPath>
</defs>
</svg>
