<?xml version="1.0" standalone="no"?>
  <!DOCTYPE svg PUBLIC "-//W3C//DTD SVG 1.1//EN" "http://www.w3.org/Graphics/SVG/1.1/DTD/svg11.dtd" >
  <svg>
  <metadata>
  Created by font-carrier
  </metadata>
  <defs>
  <font id="CenturyGothic-Bold" horiz-adv-x="2621" vert-adv-y="2621" >
    <font-face
      
      font-family="Century Gothic"
      
      font-weight="400"
      
      font-stretch="normal"
      
      units-per-em="2048"
      
      ascent="2060"
      
      descent="-451"
      
    />
      <missing-glyph />

      

      
      <glyph glyph-name="uni21" unicode="&#x21;" d="M148 1508L424 1508L424 433L148 433L148 1508M286 314Q357 314 407.50 264Q458 214 458 143Q458 73 407.50 22.50Q357-28 286-28Q215-28 165 22Q115 72 115 143Q115 214 165 264Q215 314 286 314Z"  horiz-adv-x="573" vert-adv-y="2048"  />

      
      <glyph glyph-name="uni22" unicode="&#x22;" d="M653 1004L497 1004L442 1508L709 1508L653 1004M242 1004L86 1004L31 1508L298 1508L242 1004Z"  horiz-adv-x="737" vert-adv-y="2048"  />

      
      <glyph glyph-name="uni23" unicode="&#x23;" d="M1110 678L1110 479L879 479L808 0L607 0L677 479L486 479L416 0L216 0L286 479L61 479L61 678L317 678L347 866L124 866L124 1065L375 1065L440 1508L635 1508L573 1065L764 1065L829 1508L1030 1508L965 1065L1167 1065L1167 866L936 866L910 678L1110 678M736 866L542 866L516 678L705 678L736 866Z"  horiz-adv-x="1229" vert-adv-y="2048"  />

      
      <glyph glyph-name="uni24" unicode="&#x24;" d="M1039 1301L846 1113Q714 1249 585 1249Q509 1249 461.50 1208.50Q414 1168 414 1115Q414 1070 456 1026Q497 981 622 930Q844 838 926 773Q1008 708 1052 617Q1096 526 1096 413Q1096 300 1049 204Q1002 108 928 52Q854-4 715-33L715-300L527-300L527-39Q396-24 304 27Q178 97 70 213L260 408Q443 213 614 213Q701 213 763.50 273.50Q826 334 826 416Q826 485 786 537Q745 589 628 643Q390 753 306 817.50Q222 882 180.50 962.50Q139 1043 139 1134Q139 1285 249 1392.50Q359 1500 527 1508L527 1608L715 1608L715 1495Q812 1472 879.50 1433Q947 1394 1039 1301Z"  horiz-adv-x="1147" vert-adv-y="2048"  />

      
      <glyph glyph-name="uni25" unicode="&#x25;" d="M1352 1536L1554 1536L388-100L186-100L1183 1305Q1093 1290 1014 1282.50Q935 1275 868 1275Q799 1275 722 1282Q744 1212 744 1155Q744 1009 642.50 907Q541 805 395 805Q248 805 145 907Q42 1009 42 1154Q42 1248 88 1328.50Q134 1409 217.50 1458.50Q301 1508 383 1508Q445 1508 554 1484Q747 1442 894 1442Q1027 1442 1141.50 1465.50Q1256 1489 1352 1536M393 1325Q323 1325 273.50 1275.50Q224 1226 224 1157Q224 1087 273.50 1037.50Q323 988 393 988Q463 988 512.50 1037.50Q562 1087 562 1157Q562 1227 512.50 1276Q463 1325 393 1325M1368 663Q1513 663 1616 560Q1719 457 1719 311Q1719 166 1616 63Q1513-40 1368-40Q1222-40 1119.50 63Q1017 166 1017 311Q1017 457 1119.50 560Q1222 663 1368 663M1367 482Q1296 482 1246.50 432Q1197 382 1197 312Q1197 242 1246.50 192Q1296 142 1367 142Q1437 142 1486.50 192Q1536 242 1536 312Q1536 382 1486.50 432Q1437 482 1367 482Z"  horiz-adv-x="1761" vert-adv-y="2048"  />

      
      <glyph glyph-name="uni26" unicode="&#x26;" d="M1090 578L1257 387L1181 318L1106 250L1342 0L1003 0L906 100Q674-37 475-37Q306-37 201.50 62Q97 161 97 316Q97 433 156 537Q215 641 358 752Q217 943 217 1090Q217 1199 311 1305Q405 1411 576 1411Q749 1411 841.50 1306Q934 1201 934 1094Q934 1010 891.50 933Q849 856 696 705Q875 494 927 442Q959 466 1090 578M558 902Q669 997 669 1070Q669 1108 644 1132Q619 1156 578 1156Q540 1156 513.50 1129Q487 1102 487 1066Q487 994 558 902M724 294Q647 370 507 546Q358 423 358 331Q358 288 398.50 252Q439 216 501 216Q590 216 724 294Z"  horiz-adv-x="1393" vert-adv-y="2048"  />

      
      <glyph glyph-name="uni27" unicode="&#x27;" d="M303 1004L147 1004L92 1508L358 1508L303 1004Z"  horiz-adv-x="451" vert-adv-y="2048"  />

      
      <glyph glyph-name="uni28" unicode="&#x28;" d="M380 1536L726 1536Q548 1335 460.50 1100Q373 865 373 563Q373 236 470-12Q546-203 726-426L380-426Q220-172 156.50 49.50Q93 271 93 571Q93 865 160 1086Q227 1307 380 1536Z"  horiz-adv-x="778" vert-adv-y="2048"  />

      
      <glyph glyph-name="uni29" unicode="&#x29;" d="M399-426L53-426Q231-225 318.50 9.50Q406 244 406 547Q406 874 309 1121Q233 1312 53 1536L399 1536Q559 1282 622.50 1060.50Q686 839 686 539Q686 245 619 24Q552-197 399-426Z"  horiz-adv-x="778" vert-adv-y="2048"  />

      
      <glyph glyph-name="uni2a" unicode="&#x2a;" d="M331 1508L585 1508L506 1207L732 1420L849 1200L544 1122L849 1035L717 818L499 1035L576 735L331 735L408 1035L185 818L52 1035L358 1122L52 1207L185 1430L408 1207L331 1508Z"  horiz-adv-x="901" vert-adv-y="2048"  />

      
      <glyph glyph-name="uni2b" unicode="&#x2b;" d="M490 860L490 1235L740 1235L740 860L1114 860L1114 610L740 610L740 236L490 236L490 610L115 610L115 860L490 860Z"  horiz-adv-x="1229" vert-adv-y="2048"  />

      
      <glyph glyph-name="uni2c" unicode="&#x2c;" d="M269 277L464 179L217-243L81-178L269 277Z"  horiz-adv-x="573" vert-adv-y="2048"  />

      
      <glyph glyph-name="uni2d" unicode="&#x2d;" d="M176 669L684 669L684 415L176 415L176 669Z"  horiz-adv-x="860" vert-adv-y="2048"  />

      
      <glyph glyph-name="uniad" unicode="&#xad;" d="M176 669L684 669L684 415L176 415L176 669Z"  horiz-adv-x="860" vert-adv-y="2048"  />

      
      <glyph glyph-name="uni2e" unicode="&#x2e;" d="M287 285Q352 285 398 239.50Q444 194 444 129Q444 64 398 18Q352-28 287-28Q222-28 176 18Q130 64 130 129Q130 194 176 239.50Q222 285 287 285Z"  horiz-adv-x="573" vert-adv-y="2048"  />

      
      <glyph glyph-name="uni2f" unicode="&#x2f;" d="M44-262L705 1513L899 1513L237-262L44-262Z"  horiz-adv-x="942" vert-adv-y="2048"  />

      
      <glyph glyph-name="uni30" unicode="&#x30;" d="M569 1508Q730 1508 846.50 1429Q963 1350 1026.50 1187.50Q1090 1025 1090 735Q1090 442 1025.50 279Q961 116 852 39.50Q743-37 577-37Q411-37 298 40Q185 117 121 274Q57 431 57 721Q57 1126 182 1308Q321 1508 569 1508M576 1242Q505 1242 450 1196.50Q395 1151 366 1040Q337 929 337 715Q337 436 403.50 329.50Q470 223 576 223Q678 223 738 324Q811 446 811 732Q811 1022 745.50 1132Q680 1242 576 1242Z"  horiz-adv-x="1147" vert-adv-y="2048"  />

      
      <glyph glyph-name="uni31" unicode="&#x31;" d="M337 1471L756 1471L756 0L478 0L478 1208L175 1208L337 1471Z"  horiz-adv-x="1147" vert-adv-y="2048"  />

      
      <glyph glyph-name="uni32" unicode="&#x32;" d="M357 997L84 997Q95 1235 233.50 1371.50Q372 1508 589 1508Q723 1508 825.50 1451.50Q928 1395 989.50 1288.50Q1051 1182 1051 1072Q1051 941 976.50 790Q902 639 704 433L539 259L1063 259L1063 0L44 0L44 134L499 598Q664 765 718.50 866.50Q773 968 773 1050Q773 1135 716.50 1190.50Q660 1246 571 1246Q481 1246 421 1179Q361 1112 357 997Z"  horiz-adv-x="1147" vert-adv-y="2048"  />

      
      <glyph glyph-name="uni33" unicode="&#x33;" d="M389 1108L120 1108Q141 1271 237 1370Q371 1508 574 1508Q755 1508 877.50 1393Q1000 1278 1000 1120Q1000 1022 946.50 941Q893 860 791 810Q925 770 1000.50 670.50Q1076 571 1076 436Q1076 238 930 100.50Q784-37 558-37Q344-37 209 92.50Q74 222 61 445L338 445Q356 331 417.50 275.50Q479 220 573 220Q671 220 735.50 283Q800 346 800 437Q800 537 713 606Q626 675 462 677L462 917Q563 925 612.50 948.50Q662 972 689.50 1013Q717 1054 717 1100Q717 1160 675 1199.50Q633 1239 565 1239Q505 1239 456 1202.50Q407 1166 389 1108Z"  horiz-adv-x="1147" vert-adv-y="2048"  />

      
      <glyph glyph-name="uni34" unicode="&#x34;" d="M678 1508L958 1508L958 561L1089 561L1089 302L958 302L958 0L684 0L684 302L42 302L42 561L678 1508M684 561L684 1054L348 561L684 561Z"  horiz-adv-x="1147" vert-adv-y="2048"  />

      
      <glyph glyph-name="uni35" unicode="&#x35;" d="M342 1471L1031 1471L1031 1213L551 1213L491 945Q516 952 540 955.50Q564 959 586 959Q786 959 918.50 822.50Q1051 686 1051 473Q1051 258 904.50 110.50Q758-37 548-37Q360-37 225 70Q90 177 48 363L342 363Q376 294 431.50 258.50Q487 223 554 223Q647 223 712 290Q777 357 777 462Q777 564 716.50 629.50Q656 695 570 695Q524 695 479.50 672Q435 649 392 603L164 654L342 1471Z"  horiz-adv-x="1147" vert-adv-y="2048"  />

      
      <glyph glyph-name="uni36" unicode="&#x36;" d="M594 1508L832 1389L575 889Q762 889 893 755Q1024 621 1024 422Q1024 230 889.50 96.50Q755-37 565-37Q366-37 233.50 101.50Q101 240 101 419Q101 487 121.50 556Q142 625 216 768L594 1508M559 624Q481 624 428 567.50Q375 511 375 426Q375 341 430.50 283Q486 225 560 225Q638 225 694 282Q750 339 750 426Q750 511 695.50 567.50Q641 624 559 624Z"  horiz-adv-x="1147" vert-adv-y="2048"  />

      
      <glyph glyph-name="uni37" unicode="&#x37;" d="M123 1471L1088 1471L1088 1324L424-37L187 78L739 1208L123 1208L123 1471Z"  horiz-adv-x="1147" vert-adv-y="2048"  />

      
      <glyph glyph-name="uni38" unicode="&#x38;" d="M875 797Q975 733 1029.50 632.50Q1084 532 1084 415Q1084 288 1020.50 180Q957 72 850 17.50Q743-37 577-37Q399-37 294 15.50Q189 68 126 174.50Q63 281 63 415Q63 531 113.50 626.50Q164 722 265 797Q199 864 165.50 939.50Q132 1015 132 1099Q132 1214 187.50 1308.50Q243 1403 343 1455.50Q443 1508 574 1508Q703 1508 801 1455Q899 1402 955.50 1304.50Q1012 1207 1012 1095Q1012 1016 982.50 948.50Q953 881 875 797M565 1238Q496 1238 451.50 1192.50Q407 1147 407 1076Q407 1005 454 957Q501 909 570 909Q641 909 686.50 956Q732 1003 732 1078Q732 1149 686 1193.50Q640 1238 565 1238M576 648Q475 648 406 586.50Q337 525 337 440Q337 351 402 289.50Q467 228 573 228Q680 228 743.50 285.50Q807 343 807 434Q807 525 741 586.50Q675 648 576 648Z"  horiz-adv-x="1147" vert-adv-y="2048"  />

      
      <glyph glyph-name="uni39" unicode="&#x39;" d="M553-37L315 81L572 581Q385 581 254 715Q123 849 123 1048Q123 1241 257.50 1374.50Q392 1508 582 1508Q781 1508 913.50 1369.50Q1046 1231 1046 1051Q1046 983 1025.50 914.50Q1005 846 931 703L553-37M588 846Q666 846 719 903Q772 960 772 1044Q772 1130 716.50 1188Q661 1246 587 1246Q509 1246 453 1188.50Q397 1131 397 1045Q397 960 451.50 903Q506 846 588 846Z"  horiz-adv-x="1147" vert-adv-y="2048"  />

      
      <glyph glyph-name="uni3a" unicode="&#x3a;" d="M287 1116Q352 1116 398 1070Q444 1024 444 959Q444 895 398 849Q352 803 287 803Q222 803 176 848.50Q130 894 130 959Q130 1024 176 1070Q222 1116 287 1116M287 285Q352 285 398 239.50Q444 194 444 129Q444 64 398 18Q352-28 287-28Q222-28 176 18Q130 64 130 129Q130 194 176 239.50Q222 285 287 285Z"  horiz-adv-x="573" vert-adv-y="2048"  />

      
      <glyph glyph-name="uni3b" unicode="&#x3b;" d="M287 1116Q352 1116 398 1070Q444 1024 444 959Q444 894 398 848.50Q352 803 287 803Q222 803 176 848.50Q130 894 130 959Q130 1024 176 1070Q222 1116 287 1116M271 278L462 178L217-243L80-177L271 278Z"  horiz-adv-x="573" vert-adv-y="2048"  />

      
      <glyph glyph-name="uni037E" unicode="&#x037E;" d="M287 1116Q352 1116 398 1070Q444 1024 444 959Q444 894 398 848.50Q352 803 287 803Q222 803 176 848.50Q130 894 130 959Q130 1024 176 1070Q222 1116 287 1116M271 278L462 178L217-243L80-177L271 278Z"  horiz-adv-x="573" vert-adv-y="2048"  />

      
      <glyph glyph-name="uni3c" unicode="&#x3c;" d="M1114 366L1114 116L115 624L115 846L1114 1354L1114 1105L402 735L1114 366Z"  horiz-adv-x="1229" vert-adv-y="2048"  />

      
      <glyph glyph-name="uni3d" unicode="&#x3d;" d="M115 1074L1114 1074L1114 824L115 824L115 1074M115 646L1114 646L1114 396L115 396L115 646Z"  horiz-adv-x="1229" vert-adv-y="2048"  />

      
      <glyph glyph-name="uni3e" unicode="&#x3e;" d="M115 1105L115 1354L1114 846L1114 624L115 116L115 366L828 735L115 1105Z"  horiz-adv-x="1229" vert-adv-y="2048"  />

      
      <glyph glyph-name="uni3f" unicode="&#x3f;" d="M362 1091L100 1091Q98 1284 232 1410Q366 1536 585 1536Q726 1536 825 1484Q924 1432 983.50 1334Q1043 1236 1043 1128Q1043 1069 1024 1012Q1005 955 964 895Q940 860 849 777Q762 698 740 665.50Q718 633 703 579Q688 525 684 429L413 429L412 474Q412 608 461 717.50Q510 827 620 923Q726 1016 748 1051Q770 1086 770 1133Q770 1197 716.50 1241.50Q663 1286 573 1286Q481 1286 422 1231.50Q363 1177 362 1091M553 315Q626 315 677.50 265Q729 215 729 144Q729 73 678 22.50Q627-28 555-28Q483-28 432.50 22.50Q382 73 382 144Q382 215 432 265Q482 315 553 315Z"  horiz-adv-x="1147" vert-adv-y="2048"  />

      
      <glyph glyph-name="uni40" unicode="&#x40;" d="M1228 301L1419 301Q1310 166 1225.50 104.50Q1141 43 1029 8Q917-27 796-27Q582-27 399 77.50Q216 182 112 362Q8 542 8 754Q8 968 112.50 1152Q217 1336 397.50 1438Q578 1540 794 1540Q1094 1540 1300.50 1347Q1507 1154 1507 898Q1507 710 1420.50 574.50Q1334 439 1185 363Q1071 305 994 305Q936 305 901 336Q874 358 872 412Q784 315 658 315Q516 315 421.50 416Q327 517 327 685Q327 870 443 1015.50Q559 1161 751 1161Q830 1161 892 1128.50Q954 1096 998 1030L1019 1135L1215 1135L1116 552Q1106 490 1106 482Q1106 471 1116.50 461.50Q1127 452 1141 452Q1176 452 1235.50 500.50Q1295 549 1332.50 640.50Q1370 732 1370 841Q1370 1003 1299 1127Q1228 1251 1095 1322Q962 1393 790 1393Q609 1393 465 1312.50Q321 1232 238 1084.50Q155 937 155 760Q155 579 239 432Q323 285 474 203Q625 121 812 121Q922 121 1020 162Q1118 203 1228 301M739 526Q826 526 883 597.50Q940 669 940 759Q940 837 893.50 886.50Q847 936 777 936Q695 936 634 868.50Q573 801 573 705Q573 624 619 575Q665 526 739 526Z"  horiz-adv-x="1515" vert-adv-y="2048"  />

      
      <glyph glyph-name="uni41" unicode="&#x41;" d="M616 1471L900 1471L1466 0L1175 0L1060 303L460 303L340 0L49 0L616 1471M760 1081L564 576L955 576L760 1081Z"  horiz-adv-x="1515" vert-adv-y="2048"  />

      
      <glyph glyph-name="uni42" unicode="&#x42;" d="M168 0L168 1471L399 1471Q600 1471 693 1445Q825 1410 903 1315Q981 1220 981 1091Q981 1007 945.50 938.50Q910 870 830 810Q964 747 1026 652.50Q1088 558 1088 429Q1088 305 1024 203Q960 101 859 50.50Q758 0 580 0L168 0M448 1204L448 894L509 894Q611 894 660.50 937Q710 980 710 1054Q710 1123 663 1163.50Q616 1204 520 1204L448 1204M448 644L448 267L518 267Q692 267 752.50 311Q813 355 813 439Q813 534 742 589Q671 644 506 644L448 644Z"  horiz-adv-x="1188" vert-adv-y="2048"  />

      
      <glyph glyph-name="uni43" unicode="&#x43;" d="M1520 1212L1324 1025Q1124 1236 874 1236Q663 1236 518.50 1092Q374 948 374 737Q374 590 438 476Q502 362 619 297Q736 232 879 232Q1001 232 1102 277.50Q1203 323 1324 443L1514 245Q1351 86 1206 24.50Q1061-37 875-37Q532-37 313.50 180.50Q95 398 95 738Q95 958 194.50 1129Q294 1300 479.50 1404Q665 1508 879 1508Q1061 1508 1229.50 1431Q1398 1354 1520 1212Z"  horiz-adv-x="1597" vert-adv-y="2048"  />

      
      <glyph glyph-name="uni44" unicode="&#x44;" d="M169 1471L501 1471Q822 1471 978 1391.50Q1134 1312 1235 1133Q1336 954 1336 715Q1336 545 1279.50 402.50Q1223 260 1123.50 166Q1024 72 908 36Q792 0 506 0L169 0L169 1471M448 1201L448 274L578 274Q770 274 856.50 318Q943 362 998 466Q1053 570 1053 722Q1053 956 922 1085Q804 1201 543 1201L448 1201Z"  horiz-adv-x="1434" vert-adv-y="2048"  />

      
      <glyph glyph-name="uni45" unicode="&#x45;" d="M169 1471L972 1471L972 1197L447 1197L447 931L972 931L972 662L447 662L447 275L972 275L972 0L169 0L169 1471Z"  horiz-adv-x="1065" vert-adv-y="2048"  />

      
      <glyph glyph-name="uni46" unicode="&#x46;" d="M172 1471L902 1471L902 1198L449 1198L449 931L902 931L902 662L449 662L449 0L172 0L172 1471Z"  horiz-adv-x="983" vert-adv-y="2048"  />

      
      <glyph glyph-name="uni47" unicode="&#x47;" d="M1526 1231L1329 1036Q1142 1234 893 1234Q676 1234 529.50 1090Q383 946 383 740Q383 527 535 379Q687 231 910 231Q1055 231 1154.50 292Q1254 353 1315 483L889 483L889 746L1629 746L1631 684Q1631 491 1531 318Q1431 145 1272 54Q1113-37 899-37Q670-37 490.50 62.50Q311 162 206.50 346Q102 530 102 743Q102 1035 295 1251Q524 1508 891 1508Q1083 1508 1250 1437Q1391 1377 1526 1231Z"  horiz-adv-x="1720" vert-adv-y="2048"  />

      
      <glyph glyph-name="uni48" unicode="&#x48;" d="M167 1471L451 1471L451 916L943 916L943 1471L1226 1471L1226 0L943 0L943 645L451 645L451 0L167 0L167 1471Z"  horiz-adv-x="1393" vert-adv-y="2048"  />

      
      <glyph glyph-name="uni49" unicode="&#x49;" d="M148 1471L426 1471L426 0L148 0L148 1471Z"  horiz-adv-x="573" vert-adv-y="2048"  />

      
      <glyph glyph-name="uni4a" unicode="&#x4a;" d="M534 1471L815 1471L815 495Q815 262 778 168Q741 74 656 18.50Q571-37 452-37Q209-37 38 176L240 365Q307 289 354 263Q401 237 445 237Q490 237 512 275Q534 313 534 442L534 1471Z"  horiz-adv-x="983" vert-adv-y="2048"  />

      
      <glyph glyph-name="uni4b" unicode="&#x4b;" d="M170 1471L453 1471L453 965L852 1471L1189 1471L675 815L1239 0L907 0L453 653L453 0L170 0L170 1471Z"  horiz-adv-x="1270" vert-adv-y="2048"  />

      
      <glyph glyph-name="uni4c" unicode="&#x4c;" d="M168 1471L448 1471L448 267L856 267L856 0L168 0L168 1471Z"  horiz-adv-x="901" vert-adv-y="2048"  />

      
      <glyph glyph-name="uni4d" unicode="&#x4d;" d="M310 1471L584 1471L924 445L1269 1471L1539 1471L1787 0L1517 0L1359 929L1046 0L799 0L490 929L329 0L56 0L310 1471Z"  horiz-adv-x="1843" vert-adv-y="2048"  />

      
      <glyph glyph-name="uni4e" unicode="&#x4e;" d="M169 1471L437 1471L1068 503L1068 1471L1348 1471L1348 0L1079 0L449 965L449 0L169 0L169 1471Z"  horiz-adv-x="1515" vert-adv-y="2048"  />

      
      <glyph glyph-name="uni4f" unicode="&#x4f;" d="M863 1508Q1175 1508 1399.50 1282Q1624 1056 1624 731Q1624 409 1402.50 186Q1181-37 865-37Q534-37 315 192Q96 421 96 736Q96 947 198 1124Q300 1301 478.50 1404.50Q657 1508 863 1508M860 1234Q656 1234 517 1092Q378 950 378 731Q378 487 553 345Q689 234 865 234Q1064 234 1204 378Q1344 522 1344 733Q1344 943 1203 1088.50Q1062 1234 860 1234Z"  horiz-adv-x="1720" vert-adv-y="2048"  />

      
      <glyph glyph-name="uni50" unicode="&#x50;" d="M167 1471L464 1471Q705 1471 811.50 1426.50Q918 1382 979.50 1282.50Q1041 1183 1041 1044Q1041 890 960.50 788Q880 686 742 646Q661 623 447 623L447 0L167 0L167 1471M447 896L536 896Q641 896 682 911Q723 926 746.50 960.50Q770 995 770 1044Q770 1129 704 1168Q656 1197 526 1197L447 1197L447 896Z"  horiz-adv-x="1147" vert-adv-y="2048"  />

      
      <glyph glyph-name="uni51" unicode="&#x51;" d="M1430 215L1686-116L1354-116L1224 51Q1063-37 865-37Q534-37 315 191.50Q96 420 96 736Q96 947 198 1123.50Q300 1300 478.50 1404Q657 1508 862 1508Q1175 1508 1399.50 1282Q1624 1056 1624 731Q1624 432 1430 215M1255 441Q1344 573 1344 733Q1344 942 1203 1088Q1062 1234 862 1234Q656 1234 517 1092Q378 950 378 731Q378 487 553 345Q690 234 864 234Q964 234 1052 273L789 612L1123 612L1255 441Z"  horiz-adv-x="1720" vert-adv-y="2048"  />

      
      <glyph glyph-name="uni52" unicode="&#x52;" d="M187 1471L484 1471Q728 1471 831.50 1427.50Q935 1384 998 1283Q1061 1182 1061 1044Q1061 899 991.50 801.50Q922 704 782 654L1130 0L824 0L493 623L467 623L467 0L187 0L187 1471M467 896L555 896Q689 896 739.50 931Q790 966 790 1047Q790 1095 765 1130.50Q740 1166 698 1181.50Q656 1197 544 1197L467 1197L467 896Z"  horiz-adv-x="1188" vert-adv-y="2048"  />

      
      <glyph glyph-name="uni53" unicode="&#x53;" d="M939 1271L732 1088Q623 1240 510 1240Q455 1240 420 1210.50Q385 1181 385 1144Q385 1107 410 1074Q444 1030 615 885Q775 751 809 716Q894 630 929.50 551.50Q965 473 965 380Q965 199 840 81Q715-37 514-37Q357-37 240.50 40Q124 117 41 282L276 424Q382 229 520 229Q592 229 641 271Q690 313 690 368Q690 418 653 468Q616 518 490 621Q250 817 180 923.50Q110 1030 110 1136Q110 1289 226.50 1398.50Q343 1508 514 1508Q624 1508 723.50 1457Q823 1406 939 1271Z"  horiz-adv-x="1065" vert-adv-y="2048"  />

      
      <glyph glyph-name="uni54" unicode="&#x54;" d="M23 1471L836 1471L836 1195L568 1195L568 0L284 0L284 1195L23 1195L23 1471Z"  horiz-adv-x="860" vert-adv-y="2048"  />

      
      <glyph glyph-name="uni55" unicode="&#x55;" d="M158 1471L439 1471L439 519Q439 396 460.50 345Q482 294 531.50 263.50Q581 233 651 233Q725 233 778.50 267Q832 301 852.50 353.50Q873 406 873 554L873 1471L1154 1471L1154 594Q1154 372 1129 286Q1104 200 1033.50 120Q963 40 871 1.50Q779-37 657-37Q497-37 378.50 36.50Q260 110 209 220.50Q158 331 158 594L158 1471Z"  horiz-adv-x="1311" vert-adv-y="2048"  />

      
      <glyph glyph-name="uni56" unicode="&#x56;" d="M56 1471L344 1471L714 426L1089 1471L1377 1471L847 0L577 0L56 1471Z"  horiz-adv-x="1434" vert-adv-y="2048"  />

      
      <glyph glyph-name="uni57" unicode="&#x57;" d="M56 1471L332 1471L544 532L807 1471L1040 1471L1306 532L1516 1471L1792 1471L1461 0L1192 0L921 951L655 0L389 0L56 1471Z"  horiz-adv-x="1843" vert-adv-y="2048"  />

      
      <glyph glyph-name="uni58" unicode="&#x58;" d="M72 1471L387 1471L695 1000L1006 1471L1321 1471L853 759L1350 0L1035 0L695 517L358 0L41 0L538 759L72 1471Z"  horiz-adv-x="1393" vert-adv-y="2048"  />

      
      <glyph glyph-name="uni59" unicode="&#x59;" d="M63 1471L364 1471L638 943L910 1471L1207 1471L777 637L777 0L495 0L495 637L63 1471Z"  horiz-adv-x="1270" vert-adv-y="2048"  />

      
      <glyph glyph-name="uni5a" unicode="&#x5a;" d="M90 1471L980 1471L455 269L946 269L946 0L47 0L570 1194L90 1194L90 1471Z"  horiz-adv-x="1024" vert-adv-y="2048"  />

      
      <glyph glyph-name="uni5b" unicode="&#x5b;" d="M169 1508L607 1508L607 1253L445 1253L445-144L607-144L607-398L169-398L169 1508Z"  horiz-adv-x="655" vert-adv-y="2048"  />

      
      <glyph glyph-name="uni5c" unicode="&#x5c;" d="M1082-262L889-262L228 1513L421 1513L1082-262Z"  horiz-adv-x="1311" vert-adv-y="2048"  />

      
      <glyph glyph-name="uni5d" unicode="&#x5d;" d="M486-398L48-398L48-143L210-143L210 1254L48 1254L48 1508L486 1508L486-398Z"  horiz-adv-x="655" vert-adv-y="2048"  />

      
      <glyph glyph-name="uni5e" unicode="&#x5e;" d="M497 1471L729 1471L1119 366L877 366L615 1114L352 366L109 366L497 1471Z"  horiz-adv-x="1229" vert-adv-y="2048"  />

      
      <glyph glyph-name="uni5f" unicode="&#x5f;" d="M-12-154L1036-154L1036-256L-12-256L-12-154Z"  horiz-adv-x="1024" vert-adv-y="2048"  />

      
      <glyph glyph-name="uni60" unicode="&#x60;" d="M382 1679L621 1287L425 1287L59 1679L382 1679Z"  horiz-adv-x="860" vert-adv-y="2048"  />

      
      <glyph glyph-name="uni61" unicode="&#x61;" d="M942 1088L1214 1088L1214 0L942 0L942 115Q862 39 781.50 5.50Q701-28 607-28Q396-28 242 135.50Q88 299 88 542Q88 794 237 955Q386 1116 599 1116Q697 1116 783 1079Q869 1042 942 968L942 1088M655 864Q528 864 444 774.50Q360 685 360 545Q360 404 445.50 313Q531 222 656 222Q785 222 870 311.50Q955 401 955 546Q955 688 870 776Q785 864 655 864Z"  horiz-adv-x="1352" vert-adv-y="2048"  />

      
      <glyph glyph-name="uni62" unicode="&#x62;" d="M409 1508L409 968Q483 1042 569 1079Q655 1116 753 1116Q966 1116 1115 955Q1264 794 1264 542Q1264 299 1110 135.50Q956-28 745-28Q651-28 570 5.50Q489 39 409 115L409 0L138 0L138 1508L409 1508M696 864Q567 864 482 776Q397 688 397 546Q397 401 482 311.50Q567 222 696 222Q821 222 906.50 313Q992 404 992 545Q992 685 908 774.50Q824 864 696 864Z"  horiz-adv-x="1352" vert-adv-y="2048"  />

      
      <glyph glyph-name="uni63" unicode="&#x63;" d="M1203 868L976 743Q912 810 849.50 836Q787 862 703 862Q550 862 455.50 770.50Q361 679 361 536Q361 397 452 309Q543 221 691 221Q874 221 976 346L1191 199Q1016-28 697-28Q410-28 247.50 142Q85 312 85 540Q85 698 164 831Q243 964 384.50 1040Q526 1116 701 1116Q863 1116 992 1051.50Q1121 987 1203 868Z"  horiz-adv-x="1311" vert-adv-y="2048"  />

      
      <glyph glyph-name="uni64" unicode="&#x64;" d="M942 1508L1214 1508L1214 0L942 0L942 115Q862 39 781.50 5.50Q701-28 607-28Q396-28 242 135.50Q88 299 88 542Q88 794 237 955Q386 1116 599 1116Q697 1116 783 1079Q869 1042 942 968L942 1508M655 864Q528 864 444 774.50Q360 685 360 545Q360 404 445.50 313Q531 222 656 222Q785 222 870 311.50Q955 401 955 546Q955 688 870 776Q785 864 655 864Z"  horiz-adv-x="1352" vert-adv-y="2048"  />

      
      <glyph glyph-name="uni65" unicode="&#x65;" d="M1228 465L351 465Q370 349 452.50 280.50Q535 212 663 212Q816 212 926 319L1156 211Q1070 89 950 30.50Q830-28 665-28Q409-28 248 133.50Q87 295 87 538Q87 787 247.50 951.50Q408 1116 650 1116Q907 1116 1068 951.50Q1229 787 1229 517L1228 465M954 680Q927 771 847.50 828Q768 885 663 885Q549 885 463 821Q409 781 363 680L954 680Z"  horiz-adv-x="1311" vert-adv-y="2048"  />

      
      <glyph glyph-name="uni66" unicode="&#x66;" d="M8 1088L105 1088Q106 1302 112 1341Q123 1431 187.50 1483.50Q252 1536 370 1536Q455 1536 562 1497L562 1289Q503 1306 465 1306Q417 1306 395 1286Q379 1271 379 1224L378 1088L551 1088L551 856L378 856L378 0L105 0L105 856L8 856L8 1088Z"  horiz-adv-x="573" vert-adv-y="2048"  />

      
      <glyph glyph-name="uni67" unicode="&#x67;" d="M942 1088L1214 1088L1214 156Q1214-120 1103-250Q954-426 654-426Q494-426 385-386Q276-346 201-268.50Q126-191 90-80L391-80Q431-126 494-149.50Q557-173 643-173Q753-173 820-139Q887-105 914.50-51Q942 3 942 135Q870 63 791 31.50Q712 0 612 0Q393 0 242 158Q91 316 91 558Q91 817 251 974Q396 1116 597 1116Q691 1116 774.50 1081.50Q858 1047 942 968L942 1088M659 861Q530 861 446 774.50Q362 688 362 557Q362 421 448 334Q534 247 664 247Q791 247 873.50 332Q956 417 956 555Q956 691 873 776Q790 861 659 861Z"  horiz-adv-x="1352" vert-adv-y="2048"  />

      
      <glyph glyph-name="uni68" unicode="&#x68;" d="M139 1508L410 1508L410 978Q490 1047 571 1081.50Q652 1116 735 1116Q897 1116 1008 1004Q1103 907 1103 719L1103 0L834 0L834 477Q834 666 816 733Q798 800 754.50 833Q711 866 647 866Q564 866 504.50 811Q445 756 422 661Q410 612 410 437L410 0L139 0L139 1508Z"  horiz-adv-x="1229" vert-adv-y="2048"  />

      
      <glyph glyph-name="uni69" unicode="&#x69;" d="M245 1536Q317 1536 368.50 1484Q420 1432 420 1358Q420 1285 369 1233.50Q318 1182 247 1182Q174 1182 122.50 1234.50Q71 1287 71 1362Q71 1434 122 1485Q173 1536 245 1536M108 1088L382 1088L382 0L108 0L108 1088Z"  horiz-adv-x="491" vert-adv-y="2048"  />

      
      <glyph glyph-name="uni6a" unicode="&#x6a;" d="M266 1536Q339 1536 390.50 1484Q442 1432 442 1358Q442 1285 391 1233Q340 1181 269 1181Q196 1181 144.50 1234Q93 1287 93 1362Q93 1434 143.50 1485Q194 1536 266 1536M130 1088L403 1088L403-36Q403-191 372.50-267.50Q342-344 276-385Q210-426 117-426Q35-426-87-385L-87-170Q-23-201 26-201Q78-201 104-170Q130-139 130-56L130 1088Z"  horiz-adv-x="532" vert-adv-y="2048"  />

      
      <glyph glyph-name="uni6b" unicode="&#x6b;" d="M140 1508L413 1508L413 639L815 1088L1157 1088L689 566L1214 0L875 0L413 501L413 0L140 0L140 1508Z"  horiz-adv-x="1188" vert-adv-y="2048"  />

      
      <glyph glyph-name="uni6c" unicode="&#x6c;" d="M109 1508L382 1508L382 0L109 0L109 1508Z"  horiz-adv-x="491" vert-adv-y="2048"  />

      
      <glyph glyph-name="uni6d" unicode="&#x6d;" d="M136 1088L410 1088L410 963Q480 1040 565.50 1078Q651 1116 752 1116Q854 1116 936 1066Q1018 1016 1068 920Q1133 1016 1227.50 1066Q1322 1116 1434 1116Q1550 1116 1638 1062Q1726 1008 1764.50 921Q1803 834 1803 638L1803 0L1528 0L1528 552Q1528 737 1482 802.50Q1436 868 1344 868Q1274 868 1218.50 828Q1163 788 1136 717.50Q1109 647 1109 491L1109 0L834 0L834 527Q834 673 812.50 738.50Q791 804 748 836Q705 868 644 868Q576 868 520.50 827.50Q465 787 437.50 714Q410 641 410 484L410 0L136 0L136 1088Z"  horiz-adv-x="1925" vert-adv-y="2048"  />

      
      <glyph glyph-name="uni6e" unicode="&#x6e;" d="M138 1088L410 1088L410 977Q503 1055 578.50 1085.50Q654 1116 733 1116Q895 1116 1008 1003Q1103 907 1103 719L1103 0L833 0L833 477Q833 672 815.50 736Q798 800 754.50 833.50Q711 867 647 867Q564 867 504.50 811.50Q445 756 422 658Q410 607 410 437L410 0L138 0L138 1088Z"  horiz-adv-x="1229" vert-adv-y="2048"  />

      
      <glyph glyph-name="uni6f" unicode="&#x6f;" d="M649 1116Q803 1116 938.50 1039Q1074 962 1150 830Q1226 698 1226 545Q1226 391 1149.50 257Q1073 123 941 47.50Q809-28 650-28Q416-28 250.50 138.50Q85 305 85 543Q85 798 272 968Q436 1116 649 1116M653 859Q526 859 441.50 770.50Q357 682 357 544Q357 402 440.50 314Q524 226 652 226Q780 226 865 315Q950 404 950 544Q950 684 866.50 771.50Q783 859 653 859Z"  horiz-adv-x="1311" vert-adv-y="2048"  />

      
      <glyph glyph-name="uni70" unicode="&#x70;" d="M409 1088L409 968Q483 1042 569 1079Q655 1116 753 1116Q966 1116 1115 955Q1264 794 1264 542Q1264 299 1110 135.50Q956-28 745-28Q651-28 570 5.50Q489 39 409 115L409-398L138-398L138 1088L409 1088M696 864Q567 864 482 776Q397 688 397 546Q397 401 482 311.50Q567 222 696 222Q821 222 906.50 313Q992 404 992 545Q992 685 908 774.50Q824 864 696 864Z"  horiz-adv-x="1352" vert-adv-y="2048"  />

      
      <glyph glyph-name="uni71" unicode="&#x71;" d="M942 1088L1214 1088L1214-398L942-398L942 115Q862 39 781.50 5.50Q701-28 607-28Q396-28 242 135.50Q88 299 88 542Q88 794 237 955Q386 1116 599 1116Q697 1116 783 1079Q869 1042 942 968L942 1088M655 864Q528 864 444 774.50Q360 685 360 545Q360 404 445.50 313Q531 222 656 222Q785 222 870 311.50Q955 401 955 546Q955 688 870 776Q785 864 655 864Z"  horiz-adv-x="1352" vert-adv-y="2048"  />

      
      <glyph glyph-name="uni72" unicode="&#x72;" d="M74 1088L308 1088L308 951Q346 1032 409 1074Q472 1116 547 1116Q600 1116 658 1088L573 853Q525 877 494 877Q431 877 387.50 799Q344 721 344 493L345 440L345 0L74 0L74 1088Z"  horiz-adv-x="655" vert-adv-y="2048"  />

      
      <glyph glyph-name="uni73" unicode="&#x73;" d="M804 936L635 767Q532 869 448 869Q402 869 376 849.50Q350 830 350 801Q350 779 366.50 760.50Q383 742 448 710L548 660Q706 582 765 501Q824 420 824 311Q824 166 717.50 69Q611-28 432-28Q194-28 52 158L220 341Q268 285 332.50 250.50Q397 216 447 216Q501 216 534 242Q567 268 567 302Q567 365 448 425L356 471Q92 604 92 804Q92 933 191.50 1024.50Q291 1116 446 1116Q552 1116 645.50 1069.50Q739 1023 804 936Z"  horiz-adv-x="901" vert-adv-y="2048"  />

      
      <glyph glyph-name="uni74" unicode="&#x74;" d="M171 1489L443 1489L443 1088L605 1088L605 853L443 853L443 0L171 0L171 853L31 853L31 1088L171 1088L171 1489Z"  horiz-adv-x="614" vert-adv-y="2048"  />

      
      <glyph glyph-name="uni75" unicode="&#x75;" d="M137 1088L413 1088L413 564Q413 411 434 351.50Q455 292 501.50 259Q548 226 616 226Q684 226 731.50 258.50Q779 291 802 354Q819 401 819 555L819 1088L1093 1088L1093 627Q1093 342 1048 237Q993 109 886 40.50Q779-28 614-28Q435-28 324.50 52Q214 132 169 275Q137 374 137 635L137 1088Z"  horiz-adv-x="1229" vert-adv-y="2048"  />

      
      <glyph glyph-name="uni76" unicode="&#x76;" d="M21 1088L299 1088L574 446L848 1088L1125 1088L662 0L485 0L21 1088Z"  horiz-adv-x="1147" vert-adv-y="2048"  />

      
      <glyph glyph-name="uni77" unicode="&#x77;" d="M17 1088L284 1088L503 469L739 1088L902 1088L1133 476L1352 1088L1621 1088L1224 0L1051 0L819 620L580 0L409 0L17 1088Z"  horiz-adv-x="1638" vert-adv-y="2048"  />

      
      <glyph glyph-name="uni78" unicode="&#x78;" d="M40 1088L357 1088L570 791L786 1088L1100 1088L728 573L1146 0L829 0L570 357L314 0L1 0L413 573L40 1088Z"  horiz-adv-x="1147" vert-adv-y="2048"  />

      
      <glyph glyph-name="uni79" unicode="&#x79;" d="M17 1088L296 1088L579 405L891 1088L1171 1088L489-398L207-398L431 81L17 1088Z"  horiz-adv-x="1188" vert-adv-y="2048"  />

      
      <glyph glyph-name="uni7a" unicode="&#x7a;" d="M91 1088L926 1088L436 231L898 231L898 0L16 0L508 857L91 857L91 1088Z"  horiz-adv-x="942" vert-adv-y="2048"  />

      
      <glyph glyph-name="uni7b" unicode="&#x7b;" d="M13 390L13 630Q102 634 144.50 665Q187 696 209.50 762Q232 828 232 985Q232 1183 250 1255.50Q268 1328 307.50 1371.50Q347 1415 423.50 1443Q500 1471 644 1471L697 1471L697 1231Q590 1231 557 1219.50Q524 1208 508.50 1182Q493 1156 493 1086Q493 960 481 805Q473 704 426 624Q391 565 305 509Q378 467 421 402.50Q464 338 478 239Q484 196 492-41Q495-128 503-149Q516-180 551.50-196Q587-212 697-212L697-451L644-451Q499-451 429-427.50Q359-404 315-358.50Q271-313 251.50-243.50Q232-174 232-4Q232 186 211.50 252.50Q191 319 147.50 352Q104 385 13 390Z"  horiz-adv-x="696" vert-adv-y="2048"  />

      
      <glyph glyph-name="uni7c" unicode="&#x7c;" d="M536 1508L694 1508L694-398L536-398L536 1508Z"  horiz-adv-x="1229" vert-adv-y="2048"  />

      
      <glyph glyph-name="uni7d" unicode="&#x7d;" d="M683 630L683 390Q594 385 551.50 354.50Q509 324 486 257.50Q463 191 463 34Q463-164 445.50-236Q428-308 388.50-351.50Q349-395 272.50-423Q196-451 52-451L-1-451L-1-212Q106-212 138.50-200.50Q171-189 187-163Q203-137 203-67Q203 60 215 215Q222 316 269 395Q305 455 391 510Q318 552 275 616.50Q232 681 218 781Q212 823 204 1060Q201 1148 192 1168Q179 1200 143.50 1215.50Q108 1231-1 1231L-1 1471L52 1471Q197 1471 266.50 1447Q336 1423 380.50 1377.50Q425 1332 444.50 1262.50Q464 1193 464 1023Q464 833 484.50 767Q505 701 548 668Q591 635 683 630Z"  horiz-adv-x="696" vert-adv-y="2048"  />

      
      <glyph glyph-name="uni7e" unicode="&#x7e;" d="M100 564L100 883Q252 957 350 957Q414 957 490.50 935.50Q567 914 694 853Q777 812 803 805Q838 795 872 795Q983 795 1130 908L1130 586Q1004 514 883 514Q817 514 750 532Q683 550 532 617Q436 659 403.50 667.50Q371 676 338 676Q288 676 237 654Q186 632 100 564Z"  horiz-adv-x="1229" vert-adv-y="2048"  />

      
      <glyph glyph-name="unia1" unicode="&#xa1;" d="M286 1138Q357 1138 407.50 1088Q458 1038 458 967Q458 896 407.50 846Q357 796 286 796Q215 796 165 846Q115 896 115 967Q115 1038 165 1088Q215 1138 286 1138M424-398L149-398L149 677L424 677L424-398Z"  horiz-adv-x="573" vert-adv-y="2048"  />

      
      <glyph glyph-name="unia2" unicode="&#xa2;" d="M821 1326L976 1259L882 1049Q992 980 1051 885L828 753Q805 784 776 812L521 235Q576 214 628 214Q753 214 849 312L1024 142Q938 54 838 13Q738-28 609-28Q514-28 419 0L308-243L155-177L275 87Q84 275 84 545Q84 713 154 843Q224 973 349 1044.50Q474 1116 629 1116Q672 1116 725 1108L821 1326M619 870Q496 863 425.50 778Q355 693 355 540Q355 442 393 357L619 870Z"  horiz-adv-x="1147" vert-adv-y="2048"  />

      
      <glyph glyph-name="unia3" unicode="&#xa3;" d="M1012 1096L731 1096Q700 1251 586 1251Q525 1251 484 1207.50Q443 1164 443 1094Q443 1053 471 980L502 899L842 899L842 647L575 647Q587 578 587 538Q587 423 519 255Q558 250 658 232Q692 226 713 226Q756 226 784 252Q822 286 836 336L1095 336Q1091 237 1038 149.50Q985 62 896 12.50Q807-37 710-37Q667-37 567-23Q413 0 337 0Q239 0 143-34L49 204Q134 238 208 248Q263 344 283 411Q303 478 303 553Q303 594 294 647L54 647L54 899L208 899Q161 999 161 1100Q161 1222 210.50 1310.50Q260 1399 364 1453.50Q468 1508 590 1508Q710 1508 808.50 1455Q907 1402 959 1308.50Q1011 1215 1012 1096Z"  horiz-adv-x="1147" vert-adv-y="2048"  />

      
      <glyph glyph-name="unia4" unicode="&#xa4;" d="M96 425L199 529Q147 608 127 674Q107 740 107 818Q107 901 128 969.50Q149 1038 201 1110L95 1214L216 1338L322 1232Q392 1281 466 1305Q540 1329 618 1329Q693 1329 764 1307Q835 1285 909 1235L1014 1338L1133 1214L1029 1113Q1082 1041 1104.50 970.50Q1127 900 1127 818Q1127 737 1105 668.50Q1083 600 1032 529L1136 425L1017 304L912 407Q839 354 767.50 330.50Q696 307 616 307Q537 307 465.50 330.50Q394 354 321 407L216 304L96 425M303 816Q303 684 395.50 591Q488 498 617 498Q746 498 838 591.50Q930 685 930 819Q930 952 838.50 1045.50Q747 1139 618 1139Q489 1139 396 1045Q303 951 303 816Z"  horiz-adv-x="1229" vert-adv-y="2048"  />

      
      <glyph glyph-name="unia5" unicode="&#xa5;" d="M48 1471L339 1471L574 948L809 1471L1100 1471L789 779L1053 779L1053 616L715 616L715 488L1053 488L1053 319L715 319L715 0L432 0L432 319L93 319L93 488L432 488L432 616L93 616L93 779L358 779L48 1471Z"  horiz-adv-x="1147" vert-adv-y="2048"  />

      
      <glyph glyph-name="unia6" unicode="&#xa6;" d="M537 744L537 1508L695 1508L695 799L537 744M537-398L537 512L695 567L695-398L537-398Z"  horiz-adv-x="1229" vert-adv-y="2048"  />

      
      <glyph glyph-name="unia7" unicode="&#xa7;" d="M985 1152L720 1152Q690 1285 559 1285Q506 1285 477 1261.50Q448 1238 448 1204Q448 1168 471 1139Q502 1101 616 1023L807 892Q936 804 985 721Q1034 638 1034 538Q1034 433 978.50 352Q923 271 820 231Q913 154 951.50 78Q990 2 990-89Q990-233 881.50-329.50Q773-426 584-426Q406-426 299.50-329.50Q193-233 168-48L427-48Q454-118 492.50-147Q531-176 585-176Q646-176 680-146Q714-116 714-75Q714-50 694-21Q673 7 605 55L329 247Q200 338 153.50 418Q107 498 107 603Q107 715 163.50 799.50Q220 884 306 916Q237 972 202.50 1041Q168 1110 168 1191Q168 1335 279 1435.50Q390 1536 567 1536Q736 1536 855 1425Q974 1314 985 1152M463 796Q401 769 371.50 728Q342 687 342 643Q342 596 384 547Q407 519 507 449L660 342Q741 380 761 407Q792 448 792 493Q792 531 761.50 571.50Q731 612 625 684L463 796Z"  horiz-adv-x="1147" vert-adv-y="2048"  />

      
      <glyph glyph-name="unia8" unicode="&#xa8;" d="M290 1573Q350 1573 392 1531Q434 1489 434 1430Q434 1370 392 1328Q350 1286 290 1286Q231 1286 189 1328Q147 1370 147 1430Q147 1489 189 1531Q231 1573 290 1573M733 1573Q793 1573 835 1531Q877 1489 877 1430Q877 1370 835 1328Q793 1286 733 1286Q674 1286 632 1328Q590 1370 590 1430Q590 1489 632 1531Q674 1573 733 1573Z"  horiz-adv-x="1024" vert-adv-y="2048"  />

      
      <glyph glyph-name="unia9" unicode="&#xa9;" d="M1524 757Q1524 552 1421.50 374.50Q1319 197 1141 94.50Q963-8 758-8Q553-8 375 94.50Q197 197 94.50 374.50Q-8 552-8 757Q-8 961 94.50 1138Q197 1315 374.50 1417.50Q552 1520 758 1520Q964 1520 1141.50 1417.50Q1319 1315 1421.50 1138Q1524 961 1524 757M1366 754Q1366 1007 1188.50 1184.50Q1011 1362 759 1362Q595 1362 453.50 1281Q312 1200 231 1059.50Q150 919 150 758Q150 597 231 457.50Q312 318 453.50 237Q595 156 757 156Q920 156 1062 237Q1204 318 1285 456.50Q1366 595 1366 754M980 616L1156 616Q1139 485 1038 400Q937 315 790 315Q602 315 481.50 441.50Q361 568 361 770Q361 966 480 1088Q599 1210 784 1210Q933 1210 1029 1135Q1125 1060 1156 917L980 917Q963 991 912 1031Q861 1071 786 1071Q675 1071 603 990.50Q531 910 531 772Q531 630 607.50 542.50Q684 455 790 455Q865 455 918 500Q971 545 980 616Z"  horiz-adv-x="1515" vert-adv-y="2048"  />

      
      <glyph glyph-name="uniaa" unicode="&#xaa;" d="M459 1491L659 1491L659 810L459 810L459 866Q426 830 387.50 812Q349 794 306 794Q206 794 126.50 892.50Q47 991 47 1150Q47 1314 124 1411Q201 1508 302 1508Q346 1508 385 1489.50Q424 1471 459 1433L459 1491M356 1329Q313 1329 280.50 1282.50Q248 1236 248 1152Q248 1067 285 1013Q314 972 357 972Q400 972 433 1018.50Q466 1065 466 1152Q466 1238 433 1283.50Q400 1329 356 1329Z"  horiz-adv-x="737" vert-adv-y="2048"  />

      
      <glyph glyph-name="uniab" unicode="&#xab;" d="M208 1088L463 1088L278 540L463 0L208 0L25 540L208 1088M662 1088L917 1088L732 540L917 0L662 0L478 540L662 1088Z"  horiz-adv-x="942" vert-adv-y="2048"  />

      
      <glyph glyph-name="uniac" unicode="&#xac;" d="M115 1074L1114 1074L1114 396L865 397L865 825L115 824L115 1074Z"  horiz-adv-x="1229" vert-adv-y="2048"  />

      
      <glyph glyph-name="uniae" unicode="&#xae;" d="M1524 755Q1524 550 1421.50 373.50Q1319 197 1141.50 94.50Q964-8 758-8Q553-8 375 94.50Q197 197 94.50 373.50Q-8 550-8 756Q-8 961 94.50 1138Q197 1315 374.50 1417.50Q552 1520 758 1520Q964 1520 1141.50 1417.50Q1319 1315 1421.50 1138Q1524 961 1524 755M1366 753Q1366 1007 1188.50 1184.50Q1011 1362 760 1362Q507 1362 328.50 1185Q150 1008 150 758Q150 596 230.50 457Q311 318 453 237Q595 156 758 156Q920 156 1062 236.50Q1204 317 1285 455.50Q1366 594 1366 753M441 1173L812 1173Q929 1173 984 1147Q1039 1121 1072.50 1065Q1106 1009 1106 930Q1106 863 1085.50 820.50Q1065 778 1008 737Q1054 711 1071 678.50Q1088 646 1092 564Q1099 408 1105.50 382.50Q1112 357 1141 334L931 334Q917 368 913 391Q909 414 908 470Q905 581 896 607Q887 633 864.50 646Q842 659 774 659L625 659L625 334L441 334L441 1173M625 1012L625 813L779 813Q868 813 897 837Q926 861 926 914Q926 967 897.50 989.50Q869 1012 780 1012L625 1012Z"  horiz-adv-x="1515" vert-adv-y="2048"  />

      
      <glyph glyph-name="uniaf" unicode="&#xaf;" d="M-12 1685L1036 1685L1036 1583L-12 1583L-12 1685Z"  horiz-adv-x="1024" vert-adv-y="2048"  />

      
      <glyph glyph-name="unib0" unicode="&#xb0;" d="M755 1164Q755 1019 654 919.50Q553 820 409 820Q265 820 165 920Q65 1020 65 1167Q65 1308 167.50 1408Q270 1508 412 1508Q554 1508 654.50 1408Q755 1308 755 1164M636 1162Q636 1261 571 1328Q506 1395 413 1395Q318 1395 251 1327.50Q184 1260 184 1164Q184 1070 251.50 1001Q319 932 412 932Q504 932 570 999.50Q636 1067 636 1162Z"  horiz-adv-x="819" vert-adv-y="2048"  />

      
      <glyph glyph-name="unib1" unicode="&#xb1;" d="M437 1079L437 1454L687 1454L687 1079L1061 1079L1061 829L687 829L687 455L437 455L437 829L62 829L62 1079L437 1079M62 250L1061 250L1061 0L62 0L62 250Z"  horiz-adv-x="1124" vert-adv-y="2048"  />

      
      <glyph glyph-name="unib2" unicode="&#xb2;" d="M227 1227L42 1227Q48 1359 130.50 1433.50Q213 1508 353 1508Q492 1508 564.50 1434Q637 1360 637 1278Q637 1211 593 1134Q549 1057 429 952L359 890L644 890L644 733L19 733L19 821L291 1053Q388 1136 418 1183Q448 1230 448 1267Q448 1303 419.50 1326.50Q391 1350 342 1350Q290 1350 259 1318Q228 1286 227 1227Z"  horiz-adv-x="688" vert-adv-y="2048"  />

      
      <glyph glyph-name="unib3" unicode="&#xb3;" d="M244 1282L61 1282Q84 1390 140 1439Q218 1508 342 1508Q459 1508 532.50 1447.50Q606 1387 606 1307Q606 1211 513 1158Q579 1131 616.50 1078.50Q654 1026 654 966Q654 865 566 790Q478 715 332 715Q196 715 114.50 788Q33 861 30 981L214 981Q233 870 340 870Q395 870 430 897.50Q465 925 465 961Q465 1060 268 1066L268 1204Q356 1204 389 1226.50Q422 1249 422 1286Q422 1314 401.50 1333.50Q381 1353 347 1353Q280 1353 244 1282Z"  horiz-adv-x="688" vert-adv-y="2048"  />

      
      <glyph glyph-name="unib4" unicode="&#xb4;" d="M478 1679L801 1679L435 1287L239 1287L478 1679Z"  horiz-adv-x="860" vert-adv-y="2048"  />

      
      <glyph glyph-name="unib5" unicode="&#xb5;" d="M88-398L88 1088L365 1088L365 517Q365 390 389.50 333.50Q414 277 470.50 240Q527 203 592 203Q657 203 707.50 237Q758 271 784.50 335Q811 399 811 525L811 1088L1091 1088L1091 0L811 0L811 127Q768 43 712.50 7Q657-29 588-29Q520-29 464.50 5.50Q409 40 365 119L365-398L88-398Z"  horiz-adv-x="1180" vert-adv-y="2048"  />

      
      <glyph glyph-name="unib6" unicode="&#xb6;" d="M552-379L552 710Q368 711 265.50 815Q163 919 163 1104Q163 1307 274.50 1410Q386 1513 636 1513L1056 1513L1056 1397L974 1397L974-379L835-379L835 1397L691 1397L691-379L552-379Z"  horiz-adv-x="1229" vert-adv-y="2048"  />

      
      <glyph glyph-name="unib7" unicode="&#xb7;" d="M696 897Q756 897 798 855.50Q840 814 840 754Q840 695 798 653Q756 611 696 611Q637 611 595 653Q553 695 553 754Q553 814 595 855.50Q637 897 696 897Z"  horiz-adv-x="682" vert-adv-y="2048"  />

      
      <glyph glyph-name="unib8" unicode="&#xb8;" d="M262 16L431 16L419-30Q486-45 524.50-88.50Q563-132 563-184Q563-265 495-323Q427-381 306-381Q208-381 84-335L120-206Q192-229 261-229Q312-229 337-209.50Q362-190 362-158Q362-132 343-117Q324-102 283-102L227-104L262 16Z"  horiz-adv-x="696" vert-adv-y="2048"  />

      
      <glyph glyph-name="unib9" unicode="&#xb9;" d="M199 1489L464 1489L464 733L276 733L276 1332L83 1332L199 1489Z"  horiz-adv-x="688" vert-adv-y="2048"  />

      
      <glyph glyph-name="uniba" unicode="&#xba;" d="M365 1508Q499 1508 596 1406Q693 1304 693 1151Q693 997 597.50 895.50Q502 794 366 794Q235 794 140 896.50Q45 999 45 1150Q45 1302 141 1405Q237 1508 365 1508M368 1326Q319 1326 283 1279Q247 1232 247 1151Q247 1067 282.50 1020.50Q318 974 368 974Q418 974 454.50 1021Q491 1068 491 1151Q491 1233 455 1279.50Q419 1326 368 1326Z"  horiz-adv-x="737" vert-adv-y="2048"  />

      
      <glyph glyph-name="unibb" unicode="&#xbb;" d="M733 0L478 0L664 548L478 1088L733 1088L917 548L733 0M280 0L25 0L210 548L25 1088L280 1088L463 548L280 0Z"  horiz-adv-x="942" vert-adv-y="2048"  />

      
      <glyph glyph-name="unibc" unicode="&#xbc;" d="M207 1489L472 1489L472 733L284 733L284 1332L91 1332L207 1489M462-37L1088 1508L1259 1508L633-37L462-37M1424 775L1606 775L1606 290L1684 290L1684 150L1606 150L1606 0L1437 0L1437 150L1042 150L1042 298L1424 775M1437 290L1437 559L1220 290L1437 290Z"  horiz-adv-x="1720" vert-adv-y="2048"  />

      
      <glyph glyph-name="unibd" unicode="&#xbd;" d="M207 1489L472 1489L472 733L284 733L284 1332L91 1332L207 1489M426-37L1052 1508L1223 1508L597-37L426-37M1251 494L1066 494Q1072 626 1154.50 700.50Q1237 775 1377 775Q1516 775 1588.50 701Q1661 627 1661 545Q1661 478 1617 401Q1573 324 1453 219L1383 157L1668 157L1668 0L1043 0L1043 88L1315 320Q1412 403 1442 450Q1472 497 1472 534Q1472 570 1443.50 593.50Q1415 617 1366 617Q1314 617 1283 585Q1252 553 1251 494Z"  horiz-adv-x="1720" vert-adv-y="2048"  />

      
      <glyph glyph-name="unibe" unicode="&#xbe;" d="M252 1282L69 1282Q92 1390 148 1439Q226 1508 350 1508Q467 1508 540.50 1447.50Q614 1387 614 1307Q614 1211 521 1158Q587 1131 624.50 1078.50Q662 1026 662 966Q662 865 574 790Q486 715 340 715Q204 715 122.50 788Q41 861 38 981L222 981Q241 870 348 870Q403 870 438 897.50Q473 925 473 961Q473 1060 276 1066L276 1204Q364 1204 397 1226.50Q430 1249 430 1286Q430 1314 409.50 1333.50Q389 1353 355 1353Q288 1353 252 1282M486-37L1112 1508L1283 1508L657-37L486-37M1424 775L1606 775L1606 290L1684 290L1684 150L1606 150L1606 0L1437 0L1437 150L1042 150L1042 298L1424 775M1437 290L1437 559L1220 290L1437 290Z"  horiz-adv-x="1720" vert-adv-y="2048"  />

      
      <glyph glyph-name="unibf" unicode="&#xbf;" d="M588 795Q515 795 463.50 845Q412 895 412 966Q412 1037 463 1087.50Q514 1138 586 1138Q657 1138 708 1087.50Q759 1037 759 966Q759 895 709 845Q659 795 588 795M779 18L1041 18Q1043-174 909-300Q775-426 556-426Q415-426 315.50-374.50Q216-323 157-224.50Q98-126 98-18Q98 41 116.50 98Q135 155 176 215Q201 250 292 333Q378 412 400.50 444Q423 476 438 530.50Q453 585 457 681L727 681L729 636Q729 502 680 392.50Q631 283 521 187Q415 94 393 58.50Q371 23 371-23Q371-87 424-131.50Q477-176 568-176Q660-176 719-121.50Q778-67 779 18Z"  horiz-adv-x="1147" vert-adv-y="2048"  />

      
      <glyph glyph-name="unic0" unicode="&#xc0;" d="M616 1471L900 1471L1466 0L1175 0L1060 303L460 303L340 0L49 0L616 1471M760 1081L564 576L955 576L760 1081M709 1977L948 1585L752 1585L386 1977L709 1977Z"  horiz-adv-x="1515" vert-adv-y="2048"  />

      
      <glyph glyph-name="unic1" unicode="&#xc1;" d="M616 1471L900 1471L1466 0L1175 0L1060 303L460 303L340 0L49 0L616 1471M760 1081L564 576L955 576L760 1081M805 1977L1128 1977L762 1585L566 1585L805 1977Z"  horiz-adv-x="1515" vert-adv-y="2048"  />

      
      <glyph glyph-name="unic2" unicode="&#xc2;" d="M616 1471L900 1471L1466 0L1175 0L1060 303L460 303L340 0L49 0L616 1471M760 1081L564 576L955 576L760 1081M349 1585L649 1868L868 1868L1166 1585L868 1585L760 1716L649 1585L349 1585Z"  horiz-adv-x="1515" vert-adv-y="2048"  />

      
      <glyph glyph-name="unic3" unicode="&#xc3;" d="M616 1471L900 1471L1466 0L1175 0L1060 303L460 303L340 0L49 0L616 1471M760 1081L564 576L955 576L760 1081M451 1589L341 1754Q469 1853 600 1853Q649 1853 768 1819Q849 1797 897 1797Q981 1797 1071 1849L1175 1693Q1049 1585 931 1585Q868 1585 780 1612Q708 1633 689 1637Q663 1641 627 1641Q539 1641 451 1589Z"  horiz-adv-x="1515" vert-adv-y="2048"  />

      
      <glyph glyph-name="unic4" unicode="&#xc4;" d="M616 1471L900 1471L1466 0L1175 0L1060 303L460 303L340 0L49 0L616 1471M760 1081L564 576L955 576L760 1081M535 1871Q595 1871 637 1829Q679 1787 679 1728Q679 1668 637 1626Q595 1584 535 1584Q476 1584 434 1626Q392 1668 392 1728Q392 1787 434 1829Q476 1871 535 1871M978 1871Q1038 1871 1080 1829Q1122 1787 1122 1728Q1122 1668 1080 1626Q1038 1584 978 1584Q919 1584 877 1626Q835 1668 835 1728Q835 1787 877 1829Q919 1871 978 1871Z"  horiz-adv-x="1515" vert-adv-y="2048"  />

      
      <glyph glyph-name="unic5" unicode="&#xc5;" d="M616 1471L900 1471L1466 0L1175 0L1060 303L460 303L340 0L49 0L616 1471M760 1081L564 576L955 576L760 1081M757 2032Q848 2032 912 1966.50Q976 1901 976 1809Q976 1716 911.50 1650.50Q847 1585 757 1585Q667 1585 602.50 1650.50Q538 1716 538 1809Q538 1901 602 1966.50Q666 2032 757 2032M757 1903Q723 1903 699 1877Q675 1851 675 1814Q675 1776 699.50 1750Q724 1724 757 1724Q790 1724 814.50 1750Q839 1776 839 1814Q839 1851 815 1877Q791 1903 757 1903Z"  horiz-adv-x="1515" vert-adv-y="2048"  />

      
      <glyph glyph-name="unic6" unicode="&#xc6;" d="M774 1471L1737 1471L1737 1197L1220 1197L1220 930L1737 930L1737 661L1220 661L1220 274L1737 274L1737 0L941 0L941 304L492 304L345 0L57 0L774 1471M941 579L941 1223L624 579L941 579Z"  horiz-adv-x="1843" vert-adv-y="2048"  />

      
      <glyph glyph-name="unic7" unicode="&#xc7;" d="M1520 1212L1324 1025Q1124 1236 874 1236Q663 1236 518.50 1092Q374 948 374 737Q374 590 438 476Q502 362 619 297Q736 232 879 232Q1001 232 1102 277.50Q1203 323 1324 443L1514 245Q1351 86 1206 24.50Q1061-37 875-37Q532-37 313.50 180.50Q95 398 95 738Q95 958 194.50 1129Q294 1300 479.50 1404Q665 1508 879 1508Q1061 1508 1229.50 1431Q1398 1354 1520 1212M713 16L882 16L870-30Q937-45 975.50-88.50Q1014-132 1014-184Q1014-265 946-323Q878-381 757-381Q659-381 535-335L571-206Q643-229 712-229Q763-229 788-209.50Q813-190 813-158Q813-132 794-117Q775-102 734-102L678-104L713 16Z"  horiz-adv-x="1597" vert-adv-y="2048"  />

      
      <glyph glyph-name="unic8" unicode="&#xc8;" d="M169 1471L972 1471L972 1197L447 1197L447 931L972 931L972 662L447 662L447 275L972 275L972 0L169 0L169 1471M520 1977L759 1585L563 1585L197 1977L520 1977Z"  horiz-adv-x="1065" vert-adv-y="2048"  />

      
      <glyph glyph-name="unic9" unicode="&#xc9;" d="M169 1471L972 1471L972 1197L447 1197L447 931L972 931L972 662L447 662L447 275L972 275L972 0L169 0L169 1471M617 1977L940 1977L574 1585L378 1585L617 1977Z"  horiz-adv-x="1065" vert-adv-y="2048"  />

      
      <glyph glyph-name="unica" unicode="&#xca;" d="M169 1471L972 1471L972 1197L447 1197L447 931L972 931L972 662L447 662L447 275L972 275L972 0L169 0L169 1471M160 1585L460 1868L679 1868L977 1585L679 1585L571 1716L460 1585L160 1585Z"  horiz-adv-x="1065" vert-adv-y="2048"  />

      
      <glyph glyph-name="unicb" unicode="&#xcb;" d="M169 1471L972 1471L972 1197L447 1197L447 931L972 931L972 662L447 662L447 275L972 275L972 0L169 0L169 1471M347 1871Q407 1871 449 1829Q491 1787 491 1728Q491 1668 449 1626Q407 1584 347 1584Q288 1584 246 1626Q204 1668 204 1728Q204 1787 246 1829Q288 1871 347 1871M790 1871Q850 1871 892 1829Q934 1787 934 1728Q934 1668 892 1626Q850 1584 790 1584Q731 1584 689 1626Q647 1668 647 1728Q647 1787 689 1829Q731 1871 790 1871Z"  horiz-adv-x="1065" vert-adv-y="2048"  />

      
      <glyph glyph-name="unicc" unicode="&#xcc;" d="M148 1471L426 1471L426 0L148 0L148 1471M239 1977L478 1585L282 1585L-84 1977L239 1977Z"  horiz-adv-x="573" vert-adv-y="2048"  />

      
      <glyph glyph-name="unicd" unicode="&#xcd;" d="M148 1471L426 1471L426 0L148 0L148 1471M335 1977L658 1977L292 1585L96 1585L335 1977Z"  horiz-adv-x="573" vert-adv-y="2048"  />

      
      <glyph glyph-name="unice" unicode="&#xce;" d="M148 1471L426 1471L426 0L148 0L148 1471M-122 1585L178 1868L397 1868L695 1585L397 1585L289 1716L178 1585L-122 1585Z"  horiz-adv-x="573" vert-adv-y="2048"  />

      
      <glyph glyph-name="unicf" unicode="&#xcf;" d="M148 1471L426 1471L426 0L148 0L148 1471M65 1871Q125 1871 167 1829Q209 1787 209 1728Q209 1668 167 1626Q125 1584 65 1584Q6 1584-36 1626Q-78 1668-78 1728Q-78 1787-36 1829Q6 1871 65 1871M508 1871Q568 1871 610 1829Q652 1787 652 1728Q652 1668 610 1626Q568 1584 508 1584Q449 1584 407 1626Q365 1668 365 1728Q365 1787 407 1829Q449 1871 508 1871Z"  horiz-adv-x="573" vert-adv-y="2048"  />

      
      <glyph glyph-name="unid0" unicode="&#xd0;" d="M219 1471L576 1471Q896 1471 1052 1391.50Q1208 1312 1309 1133Q1410 954 1410 715Q1410 545 1353.50 402.50Q1297 260 1197.50 166Q1098 72 982 36Q866 0 580 0L219 0L219 654L50 654L50 817L219 817L219 1471M498 1201L498 817L800 817L800 654L498 654L498 274L652 274Q844 274 930.50 318Q1017 362 1072 466Q1127 570 1127 722Q1127 956 996 1085Q878 1201 617 1201L498 1201Z"  horiz-adv-x="1520" vert-adv-y="2048"  />

      
      <glyph glyph-name="unid1" unicode="&#xd1;" d="M169 1471L437 1471L1068 503L1068 1471L1348 1471L1348 0L1079 0L449 965L449 0L169 0L169 1471M452 1589L342 1754Q470 1853 601 1853Q650 1853 769 1819Q850 1797 898 1797Q982 1797 1072 1849L1176 1693Q1050 1585 932 1585Q869 1585 781 1612Q709 1633 690 1637Q664 1641 628 1641Q540 1641 452 1589Z"  horiz-adv-x="1515" vert-adv-y="2048"  />

      
      <glyph glyph-name="unid2" unicode="&#xd2;" d="M863 1508Q1175 1508 1399.50 1282Q1624 1056 1624 731Q1624 409 1402.50 186Q1181-37 865-37Q534-37 315 192Q96 421 96 736Q96 947 198 1124Q300 1301 478.50 1404.50Q657 1508 863 1508M860 1234Q656 1234 517 1092Q378 950 378 731Q378 487 553 345Q689 234 865 234Q1064 234 1204 378Q1344 522 1344 733Q1344 943 1203 1088.50Q1062 1234 860 1234M812 1977L1051 1585L855 1585L489 1977L812 1977Z"  horiz-adv-x="1720" vert-adv-y="2048"  />

      
      <glyph glyph-name="unid3" unicode="&#xd3;" d="M863 1508Q1175 1508 1399.50 1282Q1624 1056 1624 731Q1624 409 1402.50 186Q1181-37 865-37Q534-37 315 192Q96 421 96 736Q96 947 198 1124Q300 1301 478.50 1404.50Q657 1508 863 1508M860 1234Q656 1234 517 1092Q378 950 378 731Q378 487 553 345Q689 234 865 234Q1064 234 1204 378Q1344 522 1344 733Q1344 943 1203 1088.50Q1062 1234 860 1234M908 1977L1231 1977L865 1585L669 1585L908 1977Z"  horiz-adv-x="1720" vert-adv-y="2048"  />

      
      <glyph glyph-name="unid4" unicode="&#xd4;" d="M863 1508Q1175 1508 1399.50 1282Q1624 1056 1624 731Q1624 409 1402.50 186Q1181-37 865-37Q534-37 315 192Q96 421 96 736Q96 947 198 1124Q300 1301 478.50 1404.50Q657 1508 863 1508M860 1234Q656 1234 517 1092Q378 950 378 731Q378 487 553 345Q689 234 865 234Q1064 234 1204 378Q1344 522 1344 733Q1344 943 1203 1088.50Q1062 1234 860 1234M451 1585L751 1868L970 1868L1268 1585L970 1585L862 1716L751 1585L451 1585Z"  horiz-adv-x="1720" vert-adv-y="2048"  />

      
      <glyph glyph-name="unid5" unicode="&#xd5;" d="M863 1508Q1175 1508 1399.50 1282Q1624 1056 1624 731Q1624 409 1402.50 186Q1181-37 865-37Q534-37 315 192Q96 421 96 736Q96 947 198 1124Q300 1301 478.50 1404.50Q657 1508 863 1508M860 1234Q656 1234 517 1092Q378 950 378 731Q378 487 553 345Q689 234 865 234Q1064 234 1204 378Q1344 522 1344 733Q1344 943 1203 1088.50Q1062 1234 860 1234M553 1589L443 1754Q571 1853 702 1853Q751 1853 870 1819Q951 1797 999 1797Q1083 1797 1173 1849L1277 1693Q1151 1585 1033 1585Q970 1585 882 1612Q810 1633 791 1637Q765 1641 729 1641Q641 1641 553 1589Z"  horiz-adv-x="1720" vert-adv-y="2048"  />

      
      <glyph glyph-name="unid6" unicode="&#xd6;" d="M863 1508Q1175 1508 1399.50 1282Q1624 1056 1624 731Q1624 409 1402.50 186Q1181-37 865-37Q534-37 315 192Q96 421 96 736Q96 947 198 1124Q300 1301 478.50 1404.50Q657 1508 863 1508M860 1234Q656 1234 517 1092Q378 950 378 731Q378 487 553 345Q689 234 865 234Q1064 234 1204 378Q1344 522 1344 733Q1344 943 1203 1088.50Q1062 1234 860 1234M638 1871Q698 1871 740 1829Q782 1787 782 1728Q782 1668 740 1626Q698 1584 638 1584Q579 1584 537 1626Q495 1668 495 1728Q495 1787 537 1829Q579 1871 638 1871M1081 1871Q1141 1871 1183 1829Q1225 1787 1225 1728Q1225 1668 1183 1626Q1141 1584 1081 1584Q1022 1584 980 1626Q938 1668 938 1728Q938 1787 980 1829Q1022 1871 1081 1871Z"  horiz-adv-x="1720" vert-adv-y="2048"  />

      
      <glyph glyph-name="unid7" unicode="&#xd7;" d="M613 588L296 272L148 419L465 736L148 1053L296 1201L613 884L929 1201L1077 1053L760 736L1077 419L929 272L613 588Z"  horiz-adv-x="1229" vert-adv-y="2048"  />

      
      <glyph glyph-name="unid8" unicode="&#xd8;" d="M1429 1251Q1625 1032 1625 731Q1625 409 1403.50 186Q1182-37 867-37Q628-37 441 88L270-114L143-8L314 194Q211 299 154 440Q97 581 97 736Q97 947 199 1123.50Q301 1300 479.50 1404Q658 1508 863 1508Q1101 1508 1306 1363L1467 1553L1593 1449L1429 1251M493 405L1129 1154Q1016 1234 862 1234Q657 1234 518 1092Q379 950 379 731Q379 537 493 405M1245 1038L620 300Q732 234 867 234Q1065 234 1205 378Q1345 522 1345 733Q1345 902 1245 1038Z"  horiz-adv-x="1720" vert-adv-y="2048"  />

      
      <glyph glyph-name="unid9" unicode="&#xd9;" d="M158 1471L439 1471L439 519Q439 396 460.50 345Q482 294 531.50 263.50Q581 233 651 233Q725 233 778.50 267Q832 301 852.50 353.50Q873 406 873 554L873 1471L1154 1471L1154 594Q1154 372 1129 286Q1104 200 1033.50 120Q963 40 871 1.50Q779-37 657-37Q497-37 378.50 36.50Q260 110 209 220.50Q158 331 158 594L158 1471M607 1977L846 1585L650 1585L284 1977L607 1977Z"  horiz-adv-x="1311" vert-adv-y="2048"  />

      
      <glyph glyph-name="unida" unicode="&#xda;" d="M158 1471L439 1471L439 519Q439 396 460.50 345Q482 294 531.50 263.50Q581 233 651 233Q725 233 778.50 267Q832 301 852.50 353.50Q873 406 873 554L873 1471L1154 1471L1154 594Q1154 372 1129 286Q1104 200 1033.50 120Q963 40 871 1.50Q779-37 657-37Q497-37 378.50 36.50Q260 110 209 220.50Q158 331 158 594L158 1471M703 1977L1026 1977L660 1585L464 1585L703 1977Z"  horiz-adv-x="1311" vert-adv-y="2048"  />

      
      <glyph glyph-name="unidb" unicode="&#xdb;" d="M158 1471L439 1471L439 519Q439 396 460.50 345Q482 294 531.50 263.50Q581 233 651 233Q725 233 778.50 267Q832 301 852.50 353.50Q873 406 873 554L873 1471L1154 1471L1154 594Q1154 372 1129 286Q1104 200 1033.50 120Q963 40 871 1.50Q779-37 657-37Q497-37 378.50 36.50Q260 110 209 220.50Q158 331 158 594L158 1471M247 1585L547 1868L766 1868L1064 1585L766 1585L658 1716L547 1585L247 1585Z"  horiz-adv-x="1311" vert-adv-y="2048"  />

      
      <glyph glyph-name="unidc" unicode="&#xdc;" d="M158 1471L439 1471L439 519Q439 396 460.50 345Q482 294 531.50 263.50Q581 233 651 233Q725 233 778.50 267Q832 301 852.50 353.50Q873 406 873 554L873 1471L1154 1471L1154 594Q1154 372 1129 286Q1104 200 1033.50 120Q963 40 871 1.50Q779-37 657-37Q497-37 378.50 36.50Q260 110 209 220.50Q158 331 158 594L158 1471M434 1871Q494 1871 536 1829Q578 1787 578 1728Q578 1668 536 1626Q494 1584 434 1584Q375 1584 333 1626Q291 1668 291 1728Q291 1787 333 1829Q375 1871 434 1871M877 1871Q937 1871 979 1829Q1021 1787 1021 1728Q1021 1668 979 1626Q937 1584 877 1584Q818 1584 776 1626Q734 1668 734 1728Q734 1787 776 1829Q818 1871 877 1871Z"  horiz-adv-x="1311" vert-adv-y="2048"  />

      
      <glyph glyph-name="unidd" unicode="&#xdd;" d="M63 1471L364 1471L638 943L910 1471L1207 1471L777 637L777 0L495 0L495 637L63 1471M683 1977L1006 1977L640 1585L444 1585L683 1977Z"  horiz-adv-x="1270" vert-adv-y="2048"  />

      
      <glyph glyph-name="unide" unicode="&#xde;" d="M167 1471L447 1471L447 1159Q703 1159 809.50 1115.50Q916 1072 978.50 972.50Q1041 873 1041 733Q1041 578 960.50 476.50Q880 375 742 335Q661 311 447 311L447 0L167 0L167 1471M447 584L536 584Q641 584 682 599Q723 614 746.50 649Q770 684 770 733Q770 817 704 857Q656 886 526 886L447 886L447 584Z"  horiz-adv-x="1147" vert-adv-y="2048"  />

      
      <glyph glyph-name="unidf" unicode="&#xdf;" d="M579 705L579 949Q682 949 742 997.50Q802 1046 802 1124Q802 1191 755 1237Q708 1283 638 1283Q572 1283 515.50 1242Q459 1201 434.50 1132Q410 1063 410 895L410 0L137 0L137 895Q137 1139 195 1264Q253 1389 371.50 1462.50Q490 1536 647 1536Q839 1536 958.50 1426.50Q1078 1317 1078 1162Q1078 1077 1041 1006Q1004 935 940.50 891.50Q877 848 768 829Q888 808 970.50 749Q1053 690 1097 604.50Q1141 519 1141 411Q1141 286 1084.50 185Q1028 84 926 28Q824-28 698-28Q613-28 530 6L530 261Q593 228 657 228Q748 228 809.50 292.50Q871 357 871 448Q871 520 835.50 577.50Q800 635 739 668Q678 701 579 705Z"  horiz-adv-x="1229" vert-adv-y="2048"  />

      
      <glyph glyph-name="unie0" unicode="&#xe0;" d="M942 1088L1214 1088L1214 0L942 0L942 115Q862 39 781.50 5.50Q701-28 607-28Q396-28 242 135.50Q88 299 88 542Q88 794 237 955Q386 1116 599 1116Q697 1116 783 1079Q869 1042 942 968L942 1088M655 864Q528 864 444 774.50Q360 685 360 545Q360 404 445.50 313Q531 222 656 222Q785 222 870 311.50Q955 401 955 546Q955 688 870 776Q785 864 655 864M628 1679L867 1287L671 1287L305 1679L628 1679Z"  horiz-adv-x="1352" vert-adv-y="2048"  />

      
      <glyph glyph-name="unie1" unicode="&#xe1;" d="M942 1088L1214 1088L1214 0L942 0L942 115Q862 39 781.50 5.50Q701-28 607-28Q396-28 242 135.50Q88 299 88 542Q88 794 237 955Q386 1116 599 1116Q697 1116 783 1079Q869 1042 942 968L942 1088M655 864Q528 864 444 774.50Q360 685 360 545Q360 404 445.50 313Q531 222 656 222Q785 222 870 311.50Q955 401 955 546Q955 688 870 776Q785 864 655 864M724 1679L1047 1679L681 1287L485 1287L724 1679Z"  horiz-adv-x="1352" vert-adv-y="2048"  />

      
      <glyph glyph-name="unie2" unicode="&#xe2;" d="M942 1088L1214 1088L1214 0L942 0L942 115Q862 39 781.50 5.50Q701-28 607-28Q396-28 242 135.50Q88 299 88 542Q88 794 237 955Q386 1116 599 1116Q697 1116 783 1079Q869 1042 942 968L942 1088M655 864Q528 864 444 774.50Q360 685 360 545Q360 404 445.50 313Q531 222 656 222Q785 222 870 311.50Q955 401 955 546Q955 688 870 776Q785 864 655 864M267 1287L567 1570L786 1570L1084 1287L786 1287L678 1418L567 1287L267 1287Z"  horiz-adv-x="1352" vert-adv-y="2048"  />

      
      <glyph glyph-name="unie3" unicode="&#xe3;" d="M942 1088L1214 1088L1214 0L942 0L942 115Q862 39 781.50 5.50Q701-28 607-28Q396-28 242 135.50Q88 299 88 542Q88 794 237 955Q386 1116 599 1116Q697 1116 783 1079Q869 1042 942 968L942 1088M655 864Q528 864 444 774.50Q360 685 360 545Q360 404 445.50 313Q531 222 656 222Q785 222 870 311.50Q955 401 955 546Q955 688 870 776Q785 864 655 864M369 1291L259 1456Q387 1555 518 1555Q567 1555 686 1521Q767 1499 815 1499Q899 1499 989 1551L1093 1395Q967 1287 849 1287Q786 1287 698 1314Q626 1335 607 1339Q581 1343 545 1343Q457 1343 369 1291Z"  horiz-adv-x="1352" vert-adv-y="2048"  />

      
      <glyph glyph-name="unie4" unicode="&#xe4;" d="M942 1088L1214 1088L1214 0L942 0L942 115Q862 39 781.50 5.50Q701-28 607-28Q396-28 242 135.50Q88 299 88 542Q88 794 237 955Q386 1116 599 1116Q697 1116 783 1079Q869 1042 942 968L942 1088M655 864Q528 864 444 774.50Q360 685 360 545Q360 404 445.50 313Q531 222 656 222Q785 222 870 311.50Q955 401 955 546Q955 688 870 776Q785 864 655 864M454 1573Q514 1573 556 1531Q598 1489 598 1430Q598 1370 556 1328Q514 1286 454 1286Q395 1286 353 1328Q311 1370 311 1430Q311 1489 353 1531Q395 1573 454 1573M897 1573Q957 1573 999 1531Q1041 1489 1041 1430Q1041 1370 999 1328Q957 1286 897 1286Q838 1286 796 1328Q754 1370 754 1430Q754 1489 796 1531Q838 1573 897 1573Z"  horiz-adv-x="1352" vert-adv-y="2048"  />

      
      <glyph glyph-name="unie5" unicode="&#xe5;" d="M942 1088L1214 1088L1214 0L942 0L942 115Q862 39 781.50 5.50Q701-28 607-28Q396-28 242 135.50Q88 299 88 542Q88 794 237 955Q386 1116 599 1116Q697 1116 783 1079Q869 1042 942 968L942 1088M655 864Q528 864 444 774.50Q360 685 360 545Q360 404 445.50 313Q531 222 656 222Q785 222 870 311.50Q955 401 955 546Q955 688 870 776Q785 864 655 864M676 1734Q767 1734 831 1668.50Q895 1603 895 1511Q895 1418 830.50 1352.50Q766 1287 676 1287Q586 1287 521.50 1352.50Q457 1418 457 1511Q457 1603 521 1668.50Q585 1734 676 1734M676 1605Q642 1605 618 1579Q594 1553 594 1516Q594 1478 618.50 1452Q643 1426 676 1426Q709 1426 733.50 1452Q758 1478 758 1516Q758 1553 734 1579Q710 1605 676 1605Z"  horiz-adv-x="1352" vert-adv-y="2048"  />

      
      <glyph glyph-name="unie6" unicode="&#xe6;" d="M992 1088L1243 1088L1243 1008Q1379 1116 1565 1116Q1723 1116 1856 1039.50Q1989 963 2061.50 828Q2134 693 2134 525L2132 463L1256 463Q1280 344 1362 276.50Q1444 209 1574 209Q1649 209 1708.50 234Q1768 259 1830 319L2060 211Q2006 132 1935 81Q1864 30 1772 1Q1680-28 1572-28Q1372-28 1243 78L1243 0L992 0L992 138Q913 49 828 10.50Q743-28 632-28Q401-28 245 134Q89 296 89 541Q89 782 248.50 949Q408 1116 629 1116Q750 1116 853 1063Q924 1027 992 946L992 1088M1860 676Q1835 769 1758.50 826Q1682 883 1574 883Q1464 883 1385 830Q1306 777 1269 676L1860 676M683 868Q548 868 457.50 775.50Q367 683 367 542Q367 403 455.50 312Q544 221 680 221Q821 221 907.50 311Q994 401 994 550Q994 688 905.50 778Q817 868 683 868Z"  horiz-adv-x="2212" vert-adv-y="2048"  />

      
      <glyph glyph-name="unie7" unicode="&#xe7;" d="M1203 868L976 743Q912 810 849.50 836Q787 862 703 862Q550 862 455.50 770.50Q361 679 361 536Q361 397 452 309Q543 221 691 221Q874 221 976 346L1191 199Q1016-28 697-28Q410-28 247.50 142Q85 312 85 540Q85 698 164 831Q243 964 384.50 1040Q526 1116 701 1116Q863 1116 992 1051.50Q1121 987 1203 868M570 16L739 16L727-30Q794-45 832.50-88.50Q871-132 871-184Q871-265 803-323Q735-381 614-381Q516-381 392-335L428-206Q500-229 569-229Q620-229 645-209.50Q670-190 670-158Q670-132 651-117Q632-102 591-102L535-104L570 16Z"  horiz-adv-x="1311" vert-adv-y="2048"  />

      
      <glyph glyph-name="unie8" unicode="&#xe8;" d="M1228 465L351 465Q370 349 452.50 280.50Q535 212 663 212Q816 212 926 319L1156 211Q1070 89 950 30.50Q830-28 665-28Q409-28 248 133.50Q87 295 87 538Q87 787 247.50 951.50Q408 1116 650 1116Q907 1116 1068 951.50Q1229 787 1229 517L1228 465M954 680Q927 771 847.50 828Q768 885 663 885Q549 885 463 821Q409 781 363 680L954 680M607 1679L846 1287L650 1287L284 1679L607 1679Z"  horiz-adv-x="1311" vert-adv-y="2048"  />

      
      <glyph glyph-name="unie9" unicode="&#xe9;" d="M1228 465L351 465Q370 349 452.50 280.50Q535 212 663 212Q816 212 926 319L1156 211Q1070 89 950 30.50Q830-28 665-28Q409-28 248 133.50Q87 295 87 538Q87 787 247.50 951.50Q408 1116 650 1116Q907 1116 1068 951.50Q1229 787 1229 517L1228 465M954 680Q927 771 847.50 828Q768 885 663 885Q549 885 463 821Q409 781 363 680L954 680M703 1679L1026 1679L660 1287L464 1287L703 1679Z"  horiz-adv-x="1311" vert-adv-y="2048"  />

      
      <glyph glyph-name="uniea" unicode="&#xea;" d="M1228 465L351 465Q370 349 452.50 280.50Q535 212 663 212Q816 212 926 319L1156 211Q1070 89 950 30.50Q830-28 665-28Q409-28 248 133.50Q87 295 87 538Q87 787 247.50 951.50Q408 1116 650 1116Q907 1116 1068 951.50Q1229 787 1229 517L1228 465M954 680Q927 771 847.50 828Q768 885 663 885Q549 885 463 821Q409 781 363 680L954 680M247 1287L547 1570L766 1570L1064 1287L766 1287L658 1418L547 1287L247 1287Z"  horiz-adv-x="1311" vert-adv-y="2048"  />

      
      <glyph glyph-name="unieb" unicode="&#xeb;" d="M1228 465L351 465Q370 349 452.50 280.50Q535 212 663 212Q816 212 926 319L1156 211Q1070 89 950 30.50Q830-28 665-28Q409-28 248 133.50Q87 295 87 538Q87 787 247.50 951.50Q408 1116 650 1116Q907 1116 1068 951.50Q1229 787 1229 517L1228 465M954 680Q927 771 847.50 828Q768 885 663 885Q549 885 463 821Q409 781 363 680L954 680M434 1573Q494 1573 536 1531Q578 1489 578 1430Q578 1370 536 1328Q494 1286 434 1286Q375 1286 333 1328Q291 1370 291 1430Q291 1489 333 1531Q375 1573 434 1573M877 1573Q937 1573 979 1531Q1021 1489 1021 1430Q1021 1370 979 1328Q937 1286 877 1286Q818 1286 776 1328Q734 1370 734 1430Q734 1489 776 1531Q818 1573 877 1573Z"  horiz-adv-x="1311" vert-adv-y="2048"  />

      
      <glyph glyph-name="uniec" unicode="&#xec;" d="M108 1088L382 1088L382 0L108 0L108 1088M198 1679L437 1287L241 1287L-125 1679L198 1679Z"  horiz-adv-x="491" vert-adv-y="2048"  />

      
      <glyph glyph-name="unied" unicode="&#xed;" d="M108 1088L382 1088L382 0L108 0L108 1088M294 1679L617 1679L251 1287L55 1287L294 1679Z"  horiz-adv-x="491" vert-adv-y="2048"  />

      
      <glyph glyph-name="uniee" unicode="&#xee;" d="M108 1088L382 1088L382 0L108 0L108 1088M-163 1287L137 1570L356 1570L654 1287L356 1287L248 1418L137 1287L-163 1287Z"  horiz-adv-x="491" vert-adv-y="2048"  />

      
      <glyph glyph-name="unief" unicode="&#xef;" d="M108 1088L382 1088L382 0L108 0L108 1088M24 1573Q84 1573 126 1531Q168 1489 168 1430Q168 1370 126 1328Q84 1286 24 1286Q-35 1286-77 1328Q-119 1370-119 1430Q-119 1489-77 1531Q-35 1573 24 1573M467 1573Q527 1573 569 1531Q611 1489 611 1430Q611 1370 569 1328Q527 1286 467 1286Q408 1286 366 1328Q324 1370 324 1430Q324 1489 366 1531Q408 1573 467 1573Z"  horiz-adv-x="491" vert-adv-y="2048"  />

      
      <glyph glyph-name="unif0" unicode="&#xf0;" d="M384 1508L649 1508L731 1448L930 1508L980 1351L876 1317Q1048 1158 1140 966Q1232 774 1232 582Q1232 315 1065.50 143.50Q899-28 653-28Q418-28 252.50 139Q87 306 87 544Q87 796 273 969Q431 1116 625 1116Q688 1116 753 1088Q726 1152 649 1247L384 1165L333 1324L525 1385Q429 1474 384 1508M657 858Q528 858 444 771Q360 684 360 544Q360 402 442.50 314Q525 226 653 226Q782 226 868 315Q954 404 954 543Q954 681 870 769.50Q786 858 657 858Z"  horiz-adv-x="1311" vert-adv-y="2048"  />

      
      <glyph glyph-name="unif1" unicode="&#xf1;" d="M138 1088L410 1088L410 977Q503 1055 578.50 1085.50Q654 1116 733 1116Q895 1116 1008 1003Q1103 907 1103 719L1103 0L833 0L833 477Q833 672 815.50 736Q798 800 754.50 833.50Q711 867 647 867Q564 867 504.50 811.50Q445 756 422 658Q410 607 410 437L410 0L138 0L138 1088M308 1291L198 1456Q326 1555 457 1555Q506 1555 625 1521Q706 1499 754 1499Q838 1499 928 1551L1032 1395Q906 1287 788 1287Q725 1287 637 1314Q565 1335 546 1339Q520 1343 484 1343Q396 1343 308 1291Z"  horiz-adv-x="1229" vert-adv-y="2048"  />

      
      <glyph glyph-name="unif2" unicode="&#xf2;" d="M649 1116Q803 1116 938.50 1039Q1074 962 1150 830Q1226 698 1226 545Q1226 391 1149.50 257Q1073 123 941 47.50Q809-28 650-28Q416-28 250.50 138.50Q85 305 85 543Q85 798 272 968Q436 1116 649 1116M653 859Q526 859 441.50 770.50Q357 682 357 544Q357 402 440.50 314Q524 226 652 226Q780 226 865 315Q950 404 950 544Q950 684 866.50 771.50Q783 859 653 859M607 1679L846 1287L650 1287L284 1679L607 1679Z"  horiz-adv-x="1311" vert-adv-y="2048"  />

      
      <glyph glyph-name="unif3" unicode="&#xf3;" d="M649 1116Q803 1116 938.50 1039Q1074 962 1150 830Q1226 698 1226 545Q1226 391 1149.50 257Q1073 123 941 47.50Q809-28 650-28Q416-28 250.50 138.50Q85 305 85 543Q85 798 272 968Q436 1116 649 1116M653 859Q526 859 441.50 770.50Q357 682 357 544Q357 402 440.50 314Q524 226 652 226Q780 226 865 315Q950 404 950 544Q950 684 866.50 771.50Q783 859 653 859M703 1679L1026 1679L660 1287L464 1287L703 1679Z"  horiz-adv-x="1311" vert-adv-y="2048"  />

      
      <glyph glyph-name="unif4" unicode="&#xf4;" d="M649 1116Q803 1116 938.50 1039Q1074 962 1150 830Q1226 698 1226 545Q1226 391 1149.50 257Q1073 123 941 47.50Q809-28 650-28Q416-28 250.50 138.50Q85 305 85 543Q85 798 272 968Q436 1116 649 1116M653 859Q526 859 441.50 770.50Q357 682 357 544Q357 402 440.50 314Q524 226 652 226Q780 226 865 315Q950 404 950 544Q950 684 866.50 771.50Q783 859 653 859M247 1287L547 1570L766 1570L1064 1287L766 1287L658 1418L547 1287L247 1287Z"  horiz-adv-x="1311" vert-adv-y="2048"  />

      
      <glyph glyph-name="unif5" unicode="&#xf5;" d="M649 1116Q803 1116 938.50 1039Q1074 962 1150 830Q1226 698 1226 545Q1226 391 1149.50 257Q1073 123 941 47.50Q809-28 650-28Q416-28 250.50 138.50Q85 305 85 543Q85 798 272 968Q436 1116 649 1116M653 859Q526 859 441.50 770.50Q357 682 357 544Q357 402 440.50 314Q524 226 652 226Q780 226 865 315Q950 404 950 544Q950 684 866.50 771.50Q783 859 653 859M349 1291L239 1456Q367 1555 498 1555Q547 1555 666 1521Q747 1499 795 1499Q879 1499 969 1551L1073 1395Q947 1287 829 1287Q766 1287 678 1314Q606 1335 587 1339Q561 1343 525 1343Q437 1343 349 1291Z"  horiz-adv-x="1311" vert-adv-y="2048"  />

      
      <glyph glyph-name="unif6" unicode="&#xf6;" d="M649 1116Q803 1116 938.50 1039Q1074 962 1150 830Q1226 698 1226 545Q1226 391 1149.50 257Q1073 123 941 47.50Q809-28 650-28Q416-28 250.50 138.50Q85 305 85 543Q85 798 272 968Q436 1116 649 1116M653 859Q526 859 441.50 770.50Q357 682 357 544Q357 402 440.50 314Q524 226 652 226Q780 226 865 315Q950 404 950 544Q950 684 866.50 771.50Q783 859 653 859M433 1573Q493 1573 535 1531Q577 1489 577 1430Q577 1370 535 1328Q493 1286 433 1286Q374 1286 332 1328Q290 1370 290 1430Q290 1489 332 1531Q374 1573 433 1573M876 1573Q936 1573 978 1531Q1020 1489 1020 1430Q1020 1370 978 1328Q936 1286 876 1286Q817 1286 775 1328Q733 1370 733 1430Q733 1489 775 1531Q817 1573 876 1573Z"  horiz-adv-x="1311" vert-adv-y="2048"  />

      
      <glyph glyph-name="unif7" unicode="&#xf7;" d="M401 1326L723 1326L723 1005L401 1005L401 1326M62 860L1061 860L1061 610L62 610L62 860M401 466L723 466L723 145L401 145L401 466Z"  horiz-adv-x="1124" vert-adv-y="2048"  />

      
      <glyph glyph-name="unif8" unicode="&#xf8;" d="M1123 900Q1247 740 1247 545Q1247 391 1170.50 257Q1094 123 962 47.50Q830-28 672-28Q504-28 369 60L239-85L114 22L244 168Q106 327 106 543Q106 797 292 966Q456 1116 671 1116Q849 1116 1002 1013L1128 1153L1251 1043L1123 900M423 367L829 820Q761 859 675 859Q548 859 463 770.50Q378 682 378 544Q378 450 423 367M939 696L544 255Q607 226 675 226Q801 226 886 315Q971 404 971 544Q971 626 939 696Z"  horiz-adv-x="1352" vert-adv-y="2048"  />

      
      <glyph glyph-name="unif9" unicode="&#xf9;" d="M137 1088L413 1088L413 564Q413 411 434 351.50Q455 292 501.50 259Q548 226 616 226Q684 226 731.50 258.50Q779 291 802 354Q819 401 819 555L819 1088L1093 1088L1093 627Q1093 342 1048 237Q993 109 886 40.50Q779-28 614-28Q435-28 324.50 52Q214 132 169 275Q137 374 137 635L137 1088M567 1679L806 1287L610 1287L244 1679L567 1679Z"  horiz-adv-x="1229" vert-adv-y="2048"  />

      
      <glyph glyph-name="unifa" unicode="&#xfa;" d="M137 1088L413 1088L413 564Q413 411 434 351.50Q455 292 501.50 259Q548 226 616 226Q684 226 731.50 258.50Q779 291 802 354Q819 401 819 555L819 1088L1093 1088L1093 627Q1093 342 1048 237Q993 109 886 40.50Q779-28 614-28Q435-28 324.50 52Q214 132 169 275Q137 374 137 635L137 1088M663 1679L986 1679L620 1287L424 1287L663 1679Z"  horiz-adv-x="1229" vert-adv-y="2048"  />

      
      <glyph glyph-name="unifb" unicode="&#xfb;" d="M137 1088L413 1088L413 564Q413 411 434 351.50Q455 292 501.50 259Q548 226 616 226Q684 226 731.50 258.50Q779 291 802 354Q819 401 819 555L819 1088L1093 1088L1093 627Q1093 342 1048 237Q993 109 886 40.50Q779-28 614-28Q435-28 324.50 52Q214 132 169 275Q137 374 137 635L137 1088M206 1287L506 1570L725 1570L1023 1287L725 1287L617 1418L506 1287L206 1287Z"  horiz-adv-x="1229" vert-adv-y="2048"  />

      
      <glyph glyph-name="unifc" unicode="&#xfc;" d="M137 1088L413 1088L413 564Q413 411 434 351.50Q455 292 501.50 259Q548 226 616 226Q684 226 731.50 258.50Q779 291 802 354Q819 401 819 555L819 1088L1093 1088L1093 627Q1093 342 1048 237Q993 109 886 40.50Q779-28 614-28Q435-28 324.50 52Q214 132 169 275Q137 374 137 635L137 1088M393 1573Q453 1573 495 1531Q537 1489 537 1430Q537 1370 495 1328Q453 1286 393 1286Q334 1286 292 1328Q250 1370 250 1430Q250 1489 292 1531Q334 1573 393 1573M836 1573Q896 1573 938 1531Q980 1489 980 1430Q980 1370 938 1328Q896 1286 836 1286Q777 1286 735 1328Q693 1370 693 1430Q693 1489 735 1531Q777 1573 836 1573Z"  horiz-adv-x="1229" vert-adv-y="2048"  />

      
      <glyph glyph-name="unifd" unicode="&#xfd;" d="M17 1088L296 1088L579 405L891 1088L1171 1088L489-398L207-398L431 81L17 1088M641 1679L964 1679L598 1287L402 1287L641 1679Z"  horiz-adv-x="1188" vert-adv-y="2048"  />

      
      <glyph glyph-name="unife" unicode="&#xfe;" d="M409 1508L409 968Q483 1042 569 1079Q655 1116 753 1116Q966 1116 1115 955Q1264 794 1264 542Q1264 299 1110 135.50Q956-28 745-28Q651-28 570 5.50Q489 39 409 115L409-398L138-398L138 1508L409 1508M696 864Q567 864 482 776Q397 688 397 546Q397 401 482 311.50Q567 222 696 222Q821 222 906.50 313Q992 404 992 545Q992 685 908 774.50Q824 864 696 864Z"  horiz-adv-x="1352" vert-adv-y="2048"  />

      
      <glyph glyph-name="uniff" unicode="&#xff;" d="M17 1088L296 1088L579 405L891 1088L1171 1088L489-398L207-398L431 81L17 1088M372 1573Q432 1573 474 1531Q516 1489 516 1430Q516 1370 474 1328Q432 1286 372 1286Q313 1286 271 1328Q229 1370 229 1430Q229 1489 271 1531Q313 1573 372 1573M815 1573Q875 1573 917 1531Q959 1489 959 1430Q959 1370 917 1328Q875 1286 815 1286Q756 1286 714 1328Q672 1370 672 1430Q672 1489 714 1531Q756 1573 815 1573Z"  horiz-adv-x="1188" vert-adv-y="2048"  />

      
      <glyph glyph-name="uni0100" unicode="&#x0100;" d="M616 1471L900 1471L1466 0L1175 0L1060 303L460 303L340 0L49 0L616 1471M760 1081L564 576L955 576L760 1081M473 1585L473 1806L1042 1806L1042 1585L473 1585Z"  horiz-adv-x="1515" vert-adv-y="2048"  />

      
      <glyph glyph-name="uni0101" unicode="&#x0101;" d="M942 1088L1214 1088L1214 0L942 0L942 115Q862 39 781.50 5.50Q701-28 607-28Q396-28 242 135.50Q88 299 88 542Q88 794 237 955Q386 1116 599 1116Q697 1116 783 1079Q869 1042 942 968L942 1088M655 864Q528 864 444 774.50Q360 685 360 545Q360 404 445.50 313Q531 222 656 222Q785 222 870 311.50Q955 401 955 546Q955 688 870 776Q785 864 655 864M366 1287L366 1508L935 1508L935 1287L366 1287Z"  horiz-adv-x="1352" vert-adv-y="2048"  />

      
      <glyph glyph-name="uni0102" unicode="&#x0102;" d="M616 1471L900 1471L1466 0L1175 0L1060 303L460 303L340 0L49 0L616 1471M760 1081L564 576L955 576L760 1081M360 1866L581 1866Q607 1825 653.50 1804.50Q700 1784 767 1784Q835 1784 890 1808Q926 1824 953 1866L1174 1866Q1155 1739 1052.50 1662Q950 1585 766 1585Q642 1585 558.50 1619.50Q475 1654 424 1718Q373 1782 360 1866Z"  horiz-adv-x="1515" vert-adv-y="2048"  />

      
      <glyph glyph-name="uni0103" unicode="&#x0103;" d="M942 1088L1214 1088L1214 0L942 0L942 115Q862 39 781.50 5.50Q701-28 607-28Q396-28 242 135.50Q88 299 88 542Q88 794 237 955Q386 1116 599 1116Q697 1116 783 1079Q869 1042 942 968L942 1088M655 864Q528 864 444 774.50Q360 685 360 545Q360 404 445.50 313Q531 222 656 222Q785 222 870 311.50Q955 401 955 546Q955 688 870 776Q785 864 655 864M251 1568L472 1568Q498 1527 544.50 1506.50Q591 1486 658 1486Q726 1486 781 1510Q817 1526 844 1568L1065 1568Q1046 1441 943.50 1364Q841 1287 657 1287Q533 1287 449.50 1321.50Q366 1356 315 1420Q264 1484 251 1568Z"  horiz-adv-x="1352" vert-adv-y="2048"  />

      
      <glyph glyph-name="uni0104" unicode="&#x0104;" d="M616 1471L900 1471L1466 0L1175 0L1060 303L460 303L340 0L49 0L616 1471M760 1081L564 576L955 576L760 1081M1313 0L1457 0Q1317-83 1317-165Q1317-206 1346-232Q1375-258 1421-258Q1455-258 1508-231L1508-390Q1439-405 1380-405Q1262-405 1199-351Q1136-297 1136-216Q1136-155 1181-97Q1226-39 1313 0Z"  horiz-adv-x="1515" vert-adv-y="2048"  />

      
      <glyph glyph-name="uni0105" unicode="&#x0105;" d="M942 1088L1214 1088L1214 0L942 0L942 115Q862 39 781.50 5.50Q701-28 607-28Q396-28 242 135.50Q88 299 88 542Q88 794 237 955Q386 1116 599 1116Q697 1116 783 1079Q869 1042 942 968L942 1088M655 864Q528 864 444 774.50Q360 685 360 545Q360 404 445.50 313Q531 222 656 222Q785 222 870 311.50Q955 401 955 546Q955 688 870 776Q785 864 655 864M1084 0L1228 0Q1088-83 1088-165Q1088-206 1117-232Q1146-258 1192-258Q1226-258 1279-231L1279-390Q1210-405 1151-405Q1033-405 970-351Q907-297 907-216Q907-155 952-97Q997-39 1084 0Z"  horiz-adv-x="1352" vert-adv-y="2048"  />

      
      <glyph glyph-name="uni0106" unicode="&#x0106;" d="M1520 1212L1324 1025Q1124 1236 874 1236Q663 1236 518.50 1092Q374 948 374 737Q374 590 438 476Q502 362 619 297Q736 232 879 232Q1001 232 1102 277.50Q1203 323 1324 443L1514 245Q1351 86 1206 24.50Q1061-37 875-37Q532-37 313.50 180.50Q95 398 95 738Q95 958 194.50 1129Q294 1300 479.50 1404Q665 1508 879 1508Q1061 1508 1229.50 1431Q1398 1354 1520 1212M895 1975L1218 1975L852 1583L656 1583L895 1975Z"  horiz-adv-x="1597" vert-adv-y="2048"  />

      
      <glyph glyph-name="uni0107" unicode="&#x0107;" d="M1203 868L976 743Q912 810 849.50 836Q787 862 703 862Q550 862 455.50 770.50Q361 679 361 536Q361 397 452 309Q543 221 691 221Q874 221 976 346L1191 199Q1016-28 697-28Q410-28 247.50 142Q85 312 85 540Q85 698 164 831Q243 964 384.50 1040Q526 1116 701 1116Q863 1116 992 1051.50Q1121 987 1203 868M740 1679L1063 1679L697 1287L501 1287L740 1679Z"  horiz-adv-x="1311" vert-adv-y="2048"  />

      
      <glyph glyph-name="uni0108" unicode="&#x0108;" d="M1520 1212L1324 1025Q1124 1236 874 1236Q663 1236 518.50 1092Q374 948 374 737Q374 590 438 476Q502 362 619 297Q736 232 879 232Q1001 232 1102 277.50Q1203 323 1324 443L1514 245Q1351 86 1206 24.50Q1061-37 875-37Q532-37 313.50 180.50Q95 398 95 738Q95 958 194.50 1129Q294 1300 479.50 1404Q665 1508 879 1508Q1061 1508 1229.50 1431Q1398 1354 1520 1212M436 1585L736 1868L955 1868L1253 1585L955 1585L847 1716L736 1585L436 1585Z"  horiz-adv-x="1597" vert-adv-y="2048"  />

      
      <glyph glyph-name="uni0109" unicode="&#x0109;" d="M1203 868L976 743Q912 810 849.50 836Q787 862 703 862Q550 862 455.50 770.50Q361 679 361 536Q361 397 452 309Q543 221 691 221Q874 221 976 346L1191 199Q1016-28 697-28Q410-28 247.50 142Q85 312 85 540Q85 698 164 831Q243 964 384.50 1040Q526 1116 701 1116Q863 1116 992 1051.50Q1121 987 1203 868M235 1287L535 1570L754 1570L1052 1287L754 1287L646 1418L535 1287L235 1287Z"  horiz-adv-x="1311" vert-adv-y="2048"  />

      
      <glyph glyph-name="uni010A" unicode="&#x010A;" d="M1520 1212L1324 1025Q1124 1236 874 1236Q663 1236 518.50 1092Q374 948 374 737Q374 590 438 476Q502 362 619 297Q736 232 879 232Q1001 232 1102 277.50Q1203 323 1324 443L1514 245Q1351 86 1206 24.50Q1061-37 875-37Q532-37 313.50 180.50Q95 398 95 738Q95 958 194.50 1129Q294 1300 479.50 1404Q665 1508 879 1508Q1061 1508 1229.50 1431Q1398 1354 1520 1212M857 1871Q917 1871 959 1829Q1001 1787 1001 1728Q1001 1668 959 1626Q917 1584 857 1584Q798 1584 756 1626Q714 1668 714 1728Q714 1787 756 1829Q798 1871 857 1871Z"  horiz-adv-x="1597" vert-adv-y="2048"  />

      
      <glyph glyph-name="uni010B" unicode="&#x010B;" d="M1203 868L976 743Q912 810 849.50 836Q787 862 703 862Q550 862 455.50 770.50Q361 679 361 536Q361 397 452 309Q543 221 691 221Q874 221 976 346L1191 199Q1016-28 697-28Q410-28 247.50 142Q85 312 85 540Q85 698 164 831Q243 964 384.50 1040Q526 1116 701 1116Q863 1116 992 1051.50Q1121 987 1203 868M681 1573Q741 1573 783 1531Q825 1489 825 1430Q825 1370 783 1328Q741 1286 681 1286Q622 1286 580 1328Q538 1370 538 1430Q538 1489 580 1531Q622 1573 681 1573Z"  horiz-adv-x="1311" vert-adv-y="2048"  />

      
      <glyph glyph-name="uni010C" unicode="&#x010C;" d="M1520 1212L1324 1025Q1124 1236 874 1236Q663 1236 518.50 1092Q374 948 374 737Q374 590 438 476Q502 362 619 297Q736 232 879 232Q1001 232 1102 277.50Q1203 323 1324 443L1514 245Q1351 86 1206 24.50Q1061-37 875-37Q532-37 313.50 180.50Q95 398 95 738Q95 958 194.50 1129Q294 1300 479.50 1404Q665 1508 879 1508Q1061 1508 1229.50 1431Q1398 1354 1520 1212M463 1866L763 1866L874 1734L982 1866L1280 1866L982 1583L763 1583L463 1866Z"  horiz-adv-x="1597" vert-adv-y="2048"  />

      
      <glyph glyph-name="uni010D" unicode="&#x010D;" d="M1203 868L976 743Q912 810 849.50 836Q787 862 703 862Q550 862 455.50 770.50Q361 679 361 536Q361 397 452 309Q543 221 691 221Q874 221 976 346L1191 199Q1016-28 697-28Q410-28 247.50 142Q85 312 85 540Q85 698 164 831Q243 964 384.50 1040Q526 1116 701 1116Q863 1116 992 1051.50Q1121 987 1203 868M283 1570L583 1570L694 1438L802 1570L1100 1570L802 1287L583 1287L283 1570Z"  horiz-adv-x="1311" vert-adv-y="2048"  />

      
      <glyph glyph-name="uni010E" unicode="&#x010E;" d="M169 1471L501 1471Q822 1471 978 1391.50Q1134 1312 1235 1133Q1336 954 1336 715Q1336 545 1279.50 402.50Q1223 260 1123.50 166Q1024 72 908 36Q792 0 506 0L169 0L169 1471M448 1201L448 274L578 274Q770 274 856.50 318Q943 362 998 466Q1053 570 1053 722Q1053 956 922 1085Q804 1201 543 1201L448 1201M160 1868L460 1868L571 1736L679 1868L977 1868L679 1585L460 1585L160 1868Z"  horiz-adv-x="1434" vert-adv-y="2048"  />

      
      <glyph glyph-name="uni010F" unicode="&#x010F;" d="M942 1508L1214 1508L1214 0L942 0L942 115Q862 39 781.50 5.50Q701-28 607-28Q396-28 242 135.50Q88 299 88 542Q88 794 237 955Q386 1116 599 1116Q697 1116 783 1079Q869 1042 942 968L942 1508M655 864Q528 864 444 774.50Q360 685 360 545Q360 404 445.50 313Q531 222 656 222Q785 222 870 311.50Q955 401 955 546Q955 688 870 776Q785 864 655 864M1289 1508L1541 1508L1541 1370Q1541 1238 1508.50 1143Q1476 1048 1399 947L1301 1024Q1338 1078 1355.50 1117.50Q1373 1157 1390 1222L1289 1222L1289 1508Z"  horiz-adv-x="1477" vert-adv-y="2048"  />

      
      <glyph glyph-name="uni0110" unicode="&#x0110;" d="M219 1471L576 1471Q896 1471 1052 1391.50Q1208 1312 1309 1133Q1410 954 1410 715Q1410 545 1353.50 402.50Q1297 260 1197.50 166Q1098 72 982 36Q866 0 580 0L219 0L219 654L50 654L50 817L219 817L219 1471M498 1201L498 817L800 817L800 654L498 654L498 274L652 274Q844 274 930.50 318Q1017 362 1072 466Q1127 570 1127 722Q1127 956 996 1085Q878 1201 617 1201L498 1201Z"  horiz-adv-x="1520" vert-adv-y="2048"  />

      
      <glyph glyph-name="uni0111" unicode="&#x0111;" d="M942 1508L1214 1508L1214 1394L1351 1394L1351 1231L1214 1231L1214 0L942 0L942 115Q862 39 781.50 5.50Q701-28 607-28Q396-28 242 135.50Q88 299 88 542Q88 794 237 955Q386 1116 599 1116Q697 1116 783 1079Q869 1042 942 968L942 1231L515 1231L515 1394L942 1394L942 1508M655 864Q528 864 444 774.50Q360 685 360 545Q360 404 445.50 313Q531 222 656 222Q785 222 870 311.50Q955 401 955 546Q955 688 870 776Q785 864 655 864Z"  horiz-adv-x="1352" vert-adv-y="2048"  />

      
      <glyph glyph-name="uni0112" unicode="&#x0112;" d="M169 1471L972 1471L972 1197L447 1197L447 931L972 931L972 662L447 662L447 275L972 275L972 0L169 0L169 1471M286 1585L286 1806L855 1806L855 1585L286 1585Z"  horiz-adv-x="1065" vert-adv-y="2048"  />

      
      <glyph glyph-name="uni0113" unicode="&#x0113;" d="M1228 465L351 465Q370 349 452.50 280.50Q535 212 663 212Q816 212 926 319L1156 211Q1070 89 950 30.50Q830-28 665-28Q409-28 248 133.50Q87 295 87 538Q87 787 247.50 951.50Q408 1116 650 1116Q907 1116 1068 951.50Q1229 787 1229 517L1228 465M954 680Q927 771 847.50 828Q768 885 663 885Q549 885 463 821Q409 781 363 680L954 680M374 1287L374 1508L943 1508L943 1287L374 1287Z"  horiz-adv-x="1311" vert-adv-y="2048"  />

      
      <glyph glyph-name="uni0114" unicode="&#x0114;" d="M169 1471L972 1471L972 1197L447 1197L447 931L972 931L972 662L447 662L447 275L972 275L972 0L169 0L169 1471M164 1866L385 1866Q411 1825 457.50 1804.50Q504 1784 571 1784Q639 1784 694 1808Q730 1824 757 1866L978 1866Q959 1739 856.50 1662Q754 1585 570 1585Q446 1585 362.50 1619.50Q279 1654 228 1718Q177 1782 164 1866Z"  horiz-adv-x="1065" vert-adv-y="2048"  />

      
      <glyph glyph-name="uni0115" unicode="&#x0115;" d="M1228 465L351 465Q370 349 452.50 280.50Q535 212 663 212Q816 212 926 319L1156 211Q1070 89 950 30.50Q830-28 665-28Q409-28 248 133.50Q87 295 87 538Q87 787 247.50 951.50Q408 1116 650 1116Q907 1116 1068 951.50Q1229 787 1229 517L1228 465M954 680Q927 771 847.50 828Q768 885 663 885Q549 885 463 821Q409 781 363 680L954 680M251 1568L472 1568Q498 1527 544.50 1506.50Q591 1486 658 1486Q726 1486 781 1510Q817 1526 844 1568L1065 1568Q1046 1441 943.50 1364Q841 1287 657 1287Q533 1287 449.50 1321.50Q366 1356 315 1420Q264 1484 251 1568Z"  horiz-adv-x="1311" vert-adv-y="2048"  />

      
      <glyph glyph-name="uni0116" unicode="&#x0116;" d="M169 1471L972 1471L972 1197L447 1197L447 931L972 931L972 662L447 662L447 275L972 275L972 0L169 0L169 1471M570 1871Q630 1871 672 1829Q714 1787 714 1728Q714 1668 672 1626Q630 1584 570 1584Q511 1584 469 1626Q427 1668 427 1728Q427 1787 469 1829Q511 1871 570 1871Z"  horiz-adv-x="1065" vert-adv-y="2048"  />

      
      <glyph glyph-name="uni0117" unicode="&#x0117;" d="M1228 465L351 465Q370 349 452.50 280.50Q535 212 663 212Q816 212 926 319L1156 211Q1070 89 950 30.50Q830-28 665-28Q409-28 248 133.50Q87 295 87 538Q87 787 247.50 951.50Q408 1116 650 1116Q907 1116 1068 951.50Q1229 787 1229 517L1228 465M954 680Q927 771 847.50 828Q768 885 663 885Q549 885 463 821Q409 781 363 680L954 680M658 1573Q718 1573 760 1531Q802 1489 802 1430Q802 1370 760 1328Q718 1286 658 1286Q599 1286 557 1328Q515 1370 515 1430Q515 1489 557 1531Q599 1573 658 1573Z"  horiz-adv-x="1311" vert-adv-y="2048"  />

      
      <glyph glyph-name="uni0118" unicode="&#x0118;" d="M169 1471L972 1471L972 1197L447 1197L447 931L972 931L972 662L447 662L447 275L972 275L972 0L169 0L169 1471M693 0L837 0Q697-83 697-165Q697-206 726-232Q755-258 801-258Q835-258 888-231L888-390Q819-405 760-405Q642-405 579-351Q516-297 516-216Q516-155 561-97Q606-39 693 0Z"  horiz-adv-x="1065" vert-adv-y="2048"  />

      
      <glyph glyph-name="uni0119" unicode="&#x0119;" d="M1228 465L351 465Q370 349 452.50 280.50Q535 212 663 212Q816 212 926 319L1156 211Q1070 89 950 30.50Q830-28 665-28Q409-28 248 133.50Q87 295 87 538Q87 787 247.50 951.50Q408 1116 650 1116Q907 1116 1068 951.50Q1229 787 1229 517L1228 465M954 680Q927 771 847.50 828Q768 885 663 885Q549 885 463 821Q409 781 363 680L954 680M638 0L782 0Q642-83 642-165Q642-206 671-232Q700-258 746-258Q780-258 833-231L833-390Q764-405 705-405Q587-405 524-351Q461-297 461-216Q461-155 506-97Q551-39 638 0Z"  horiz-adv-x="1311" vert-adv-y="2048"  />

      
      <glyph glyph-name="uni011A" unicode="&#x011A;" d="M169 1471L972 1471L972 1197L447 1197L447 931L972 931L972 662L447 662L447 275L972 275L972 0L169 0L169 1471M194 1868L494 1868L605 1736L713 1868L1011 1868L713 1585L494 1585L194 1868Z"  horiz-adv-x="1065" vert-adv-y="2048"  />

      
      <glyph glyph-name="uni011B" unicode="&#x011B;" d="M1228 465L351 465Q370 349 452.50 280.50Q535 212 663 212Q816 212 926 319L1156 211Q1070 89 950 30.50Q830-28 665-28Q409-28 248 133.50Q87 295 87 538Q87 787 247.50 951.50Q408 1116 650 1116Q907 1116 1068 951.50Q1229 787 1229 517L1228 465M954 680Q927 771 847.50 828Q768 885 663 885Q549 885 463 821Q409 781 363 680L954 680M247 1570L547 1570L658 1438L766 1570L1064 1570L766 1287L547 1287L247 1570Z"  horiz-adv-x="1311" vert-adv-y="2048"  />

      
      <glyph glyph-name="uni011C" unicode="&#x011C;" d="M1526 1231L1329 1036Q1142 1234 893 1234Q676 1234 529.50 1090Q383 946 383 740Q383 527 535 379Q687 231 910 231Q1055 231 1154.50 292Q1254 353 1315 483L889 483L889 746L1629 746L1631 684Q1631 491 1531 318Q1431 145 1272 54Q1113-37 899-37Q670-37 490.50 62.50Q311 162 206.50 346Q102 530 102 743Q102 1035 295 1251Q524 1508 891 1508Q1083 1508 1250 1437Q1391 1377 1526 1231M458 1585L758 1868L977 1868L1275 1585L977 1585L869 1716L758 1585L458 1585Z"  horiz-adv-x="1720" vert-adv-y="2048"  />

      
      <glyph glyph-name="uni011D" unicode="&#x011D;" d="M942 1088L1214 1088L1214 156Q1214-120 1103-250Q954-426 654-426Q494-426 385-386Q276-346 201-268.50Q126-191 90-80L391-80Q431-126 494-149.50Q557-173 643-173Q753-173 820-139Q887-105 914.50-51Q942 3 942 135Q870 63 791 31.50Q712 0 612 0Q393 0 242 158Q91 316 91 558Q91 817 251 974Q396 1116 597 1116Q691 1116 774.50 1081.50Q858 1047 942 968L942 1088M659 861Q530 861 446 774.50Q362 688 362 557Q362 421 448 334Q534 247 664 247Q791 247 873.50 332Q956 417 956 555Q956 691 873 776Q790 861 659 861M243 1287L543 1570L762 1570L1060 1287L762 1287L654 1418L543 1287L243 1287Z"  horiz-adv-x="1352" vert-adv-y="2048"  />

      
      <glyph glyph-name="uni011E" unicode="&#x011E;" d="M1526 1231L1329 1036Q1142 1234 893 1234Q676 1234 529.50 1090Q383 946 383 740Q383 527 535 379Q687 231 910 231Q1055 231 1154.50 292Q1254 353 1315 483L889 483L889 746L1629 746L1631 684Q1631 491 1531 318Q1431 145 1272 54Q1113-37 899-37Q670-37 490.50 62.50Q311 162 206.50 346Q102 530 102 743Q102 1035 295 1251Q524 1508 891 1508Q1083 1508 1250 1437Q1391 1377 1526 1231M453 1864L674 1864Q700 1823 746.50 1802.50Q793 1782 860 1782Q928 1782 983 1806Q1019 1822 1046 1864L1267 1864Q1248 1737 1145.50 1660Q1043 1583 859 1583Q735 1583 651.50 1617.50Q568 1652 517 1716Q466 1780 453 1864Z"  horiz-adv-x="1720" vert-adv-y="2048"  />

      
      <glyph glyph-name="uni011F" unicode="&#x011F;" d="M942 1088L1214 1088L1214 156Q1214-120 1103-250Q954-426 654-426Q494-426 385-386Q276-346 201-268.50Q126-191 90-80L391-80Q431-126 494-149.50Q557-173 643-173Q753-173 820-139Q887-105 914.50-51Q942 3 942 135Q870 63 791 31.50Q712 0 612 0Q393 0 242 158Q91 316 91 558Q91 817 251 974Q396 1116 597 1116Q691 1116 774.50 1081.50Q858 1047 942 968L942 1088M659 861Q530 861 446 774.50Q362 688 362 557Q362 421 448 334Q534 247 664 247Q791 247 873.50 332Q956 417 956 555Q956 691 873 776Q790 861 659 861M305 1568L526 1568Q552 1527 598.50 1506.50Q645 1486 712 1486Q780 1486 835 1510Q871 1526 898 1568L1119 1568Q1100 1441 997.50 1364Q895 1287 711 1287Q587 1287 503.50 1321.50Q420 1356 369 1420Q318 1484 305 1568Z"  horiz-adv-x="1352" vert-adv-y="2048"  />

      
      <glyph glyph-name="uni0120" unicode="&#x0120;" d="M1526 1231L1329 1036Q1142 1234 893 1234Q676 1234 529.50 1090Q383 946 383 740Q383 527 535 379Q687 231 910 231Q1055 231 1154.50 292Q1254 353 1315 483L889 483L889 746L1629 746L1631 684Q1631 491 1531 318Q1431 145 1272 54Q1113-37 899-37Q670-37 490.50 62.50Q311 162 206.50 346Q102 530 102 743Q102 1035 295 1251Q524 1508 891 1508Q1083 1508 1250 1437Q1391 1377 1526 1231M866 1871Q926 1871 968 1829Q1010 1787 1010 1728Q1010 1668 968 1626Q926 1584 866 1584Q807 1584 765 1626Q723 1668 723 1728Q723 1787 765 1829Q807 1871 866 1871Z"  horiz-adv-x="1720" vert-adv-y="2048"  />

      
      <glyph glyph-name="uni0121" unicode="&#x0121;" d="M942 1088L1214 1088L1214 156Q1214-120 1103-250Q954-426 654-426Q494-426 385-386Q276-346 201-268.50Q126-191 90-80L391-80Q431-126 494-149.50Q557-173 643-173Q753-173 820-139Q887-105 914.50-51Q942 3 942 135Q870 63 791 31.50Q712 0 612 0Q393 0 242 158Q91 316 91 558Q91 817 251 974Q396 1116 597 1116Q691 1116 774.50 1081.50Q858 1047 942 968L942 1088M659 861Q530 861 446 774.50Q362 688 362 557Q362 421 448 334Q534 247 664 247Q791 247 873.50 332Q956 417 956 555Q956 691 873 776Q790 861 659 861M651 1573Q711 1573 753 1531Q795 1489 795 1430Q795 1370 753 1328Q711 1286 651 1286Q592 1286 550 1328Q508 1370 508 1430Q508 1489 550 1531Q592 1573 651 1573Z"  horiz-adv-x="1352" vert-adv-y="2048"  />

      
      <glyph glyph-name="uni0122" unicode="&#x0122;" d="M1526 1231L1329 1036Q1142 1234 893 1234Q676 1234 529.50 1090Q383 946 383 740Q383 527 535 379Q687 231 910 231Q1055 231 1154.50 292Q1254 353 1315 483L889 483L889 746L1629 746L1631 684Q1631 491 1531 318Q1431 145 1272 54Q1113-37 899-37Q670-37 490.50 62.50Q311 162 206.50 346Q102 530 102 743Q102 1035 295 1251Q524 1508 891 1508Q1083 1508 1250 1437Q1391 1377 1526 1231M787 16L956 16L944-30Q1011-45 1049.50-88.50Q1088-132 1088-184Q1088-265 1020-323Q952-381 831-381Q733-381 609-335L645-206Q717-229 786-229Q837-229 862-209.50Q887-190 887-158Q887-132 868-117Q849-102 808-102L752-104L787 16Z"  horiz-adv-x="1720" vert-adv-y="2048"  />

      
      <glyph glyph-name="uni0123" unicode="&#x0123;" d="M942 1088L1214 1088L1214 156Q1214-120 1103-250Q954-426 654-426Q494-426 385-386Q276-346 201-268.50Q126-191 90-80L391-80Q431-126 494-149.50Q557-173 643-173Q753-173 820-139Q887-105 914.50-51Q942 3 942 135Q870 63 791 31.50Q712 0 612 0Q393 0 242 158Q91 316 91 558Q91 817 251 974Q396 1116 597 1116Q691 1116 774.50 1081.50Q858 1047 942 968L942 1088M659 861Q530 861 446 774.50Q362 688 362 557Q362 421 448 334Q534 247 664 247Q791 247 873.50 332Q956 417 956 555Q956 691 873 776Q790 861 659 861M803 1247L551 1247L551 1386Q551 1517 583.50 1612.50Q616 1708 693 1808L791 1731Q754 1677 736.50 1638Q719 1599 702 1534L803 1534L803 1247Z"  horiz-adv-x="1352" vert-adv-y="2048"  />

      
      <glyph glyph-name="uni0124" unicode="&#x0124;" d="M167 1471L451 1471L451 916L943 916L943 1471L1226 1471L1226 0L943 0L943 645L451 645L451 0L167 0L167 1471M288 1585L588 1868L807 1868L1105 1585L807 1585L699 1716L588 1585L288 1585Z"  horiz-adv-x="1393" vert-adv-y="2048"  />

      
      <glyph glyph-name="uni0125" unicode="&#x0125;" d="M137 1508L408 1508L408 978Q488 1047 569 1081.50Q650 1116 733 1116Q895 1116 1006 1004Q1101 907 1101 719L1101 0L832 0L832 477Q832 666 814 733Q796 800 752.50 833Q709 866 645 866Q562 866 502.50 811Q443 756 420 661Q408 612 408 437L408 0L137 0L137 1508M211 1583L511 1866L730 1866L1028 1583L730 1583L622 1714L511 1583L211 1583Z"  horiz-adv-x="1229" vert-adv-y="2048"  />

      
      <glyph glyph-name="uni0126" unicode="&#x0126;" d="M450 1292L942 1292L942 1471L1225 1471L1225 1292L1358 1292L1358 1129L1225 1129L1225 0L942 0L942 645L450 645L450 0L167 0L167 1129L34 1129L34 1292L167 1292L167 1471L450 1471L450 1292M450 1129L450 916L942 916L942 1129L450 1129Z"  horiz-adv-x="1393" vert-adv-y="2048"  />

      
      <glyph glyph-name="uni0127" unicode="&#x0127;" d="M410 1384L731 1384L731 1221L410 1221L410 978Q563 1116 733 1116Q897 1116 1001.50 1013Q1106 910 1106 719L1106 0L833 0L833 477Q833 643 819.50 715Q806 787 761.50 826.50Q717 866 647 866Q564 866 504 811Q444 756 427 683Q410 610 410 437L410 0L137 0L137 1221L0 1221L0 1384L137 1384L137 1508L410 1508L410 1384Z"  horiz-adv-x="1229" vert-adv-y="2048"  />

      
      <glyph glyph-name="uni0128" unicode="&#x0128;" d="M148 1471L426 1471L426 0L148 0L148 1471M-20 1589L-130 1754Q-2 1853 129 1853Q178 1853 297 1819Q378 1797 426 1797Q510 1797 600 1849L704 1693Q578 1585 460 1585Q397 1585 309 1612Q237 1633 218 1637Q192 1641 156 1641Q68 1641-20 1589Z"  horiz-adv-x="573" vert-adv-y="2048"  />

      
      <glyph glyph-name="uni0129" unicode="&#x0129;" d="M109 1088L383 1088L383 0L109 0L109 1088M-61 1291L-171 1456Q-43 1555 88 1555Q137 1555 256 1521Q337 1499 385 1499Q469 1499 559 1551L663 1395Q537 1287 419 1287Q356 1287 268 1314Q196 1335 177 1339Q151 1343 115 1343Q27 1343-61 1291Z"  horiz-adv-x="491" vert-adv-y="2048"  />

      
      <glyph glyph-name="uni012A" unicode="&#x012A;" d="M148 1471L426 1471L426 0L148 0L148 1471M2 1585L2 1806L571 1806L571 1585L2 1585Z"  horiz-adv-x="573" vert-adv-y="2048"  />

      
      <glyph glyph-name="uni012B" unicode="&#x012B;" d="M109 1088L383 1088L383 0L109 0L109 1088M-39 1287L-39 1508L530 1508L530 1287L-39 1287Z"  horiz-adv-x="491" vert-adv-y="2048"  />

      
      <glyph glyph-name="uni012C" unicode="&#x012C;" d="M148 1471L426 1471L426 0L148 0L148 1471M-120 1866L101 1866Q127 1825 173.50 1804.50Q220 1784 287 1784Q355 1784 410 1808Q446 1824 473 1866L694 1866Q675 1739 572.50 1662Q470 1585 286 1585Q162 1585 78.50 1619.50Q-5 1654-56 1718Q-107 1782-120 1866Z"  horiz-adv-x="573" vert-adv-y="2048"  />

      
      <glyph glyph-name="uni012D" unicode="&#x012D;" d="M109 1088L383 1088L383 0L109 0L109 1088M-162 1568L59 1568Q85 1527 131.50 1506.50Q178 1486 245 1486Q313 1486 368 1510Q404 1526 431 1568L652 1568Q633 1441 530.50 1364Q428 1287 244 1287Q120 1287 36.50 1321.50Q-47 1356-98 1420Q-149 1484-162 1568Z"  horiz-adv-x="491" vert-adv-y="2048"  />

      
      <glyph glyph-name="uni012E" unicode="&#x012E;" d="M148 1471L426 1471L426 0L148 0L148 1471M282 0L426 0Q286-83 286-165Q286-206 315-232Q344-258 390-258Q424-258 477-231L477-390Q408-405 349-405Q231-405 168-351Q105-297 105-216Q105-155 150-97Q195-39 282 0Z"  horiz-adv-x="573" vert-adv-y="2048"  />

      
      <glyph glyph-name="uni012F" unicode="&#x012F;" d="M245 1536Q317 1536 368.50 1484Q420 1432 420 1358Q420 1285 369 1233.50Q318 1182 247 1182Q174 1182 122.50 1234.50Q71 1287 71 1362Q71 1434 122 1485Q173 1536 245 1536M108 1088L382 1088L382 0L108 0L108 1088M238 0L382 0Q242-83 242-165Q242-206 271-232Q300-258 346-258Q380-258 433-231L433-390Q364-405 305-405Q187-405 124-351Q61-297 61-216Q61-155 106-97Q151-39 238 0Z"  horiz-adv-x="491" vert-adv-y="2048"  />

      
      <glyph glyph-name="uni0130" unicode="&#x0130;" d="M148 1471L426 1471L426 0L148 0L148 1471M286 1869Q346 1869 388 1827Q430 1785 430 1726Q430 1666 388 1624Q346 1582 286 1582Q227 1582 185 1624Q143 1666 143 1726Q143 1785 185 1827Q227 1869 286 1869Z"  horiz-adv-x="573" vert-adv-y="2048"  />

      
      <glyph glyph-name="uni0131" unicode="&#x0131;" d="M108 1088L382 1088L382 0L108 0L108 1088Z"  horiz-adv-x="491" vert-adv-y="2048"  />

      
      <glyph glyph-name="uni0132" unicode="&#x0132;" d="M148 1471L426 1471L426 0L148 0L148 1471M1107 1471L1388 1471L1388 495Q1388 291 1360.50 193Q1333 95 1244 29Q1155-37 1024-37Q782-37 611 176L813 365Q923 237 1019 237Q1070 237 1088.50 281Q1107 325 1107 442L1107 1471Z"  horiz-adv-x="1556" vert-adv-y="2048"  />

      
      <glyph glyph-name="uni0133" unicode="&#x0133;" d="M936 1361Q936 1288 884.50 1236.50Q833 1185 760 1185Q688 1185 636 1236.50Q584 1288 584 1361Q584 1434 636 1485.50Q688 1537 760 1537Q833 1537 884.50 1485.50Q936 1434 936 1361M423 1361Q423 1288 371 1236.50Q319 1185 247 1185Q175 1185 123 1236.50Q71 1288 71 1361Q71 1433 123 1484.50Q175 1536 247 1536Q320 1536 371.50 1485Q423 1434 423 1361M110 1088L384 1088L384 0L110 0L110 1088M623 1088L897 1088L897-36Q897-277 814-351.50Q731-426 612-426Q526-426 407-385L407-170Q469-201 519-201Q567-201 595-172.50Q623-144 623-56L623 1088Z"  horiz-adv-x="1024" vert-adv-y="2048"  />

      
      <glyph glyph-name="uni0134" unicode="&#x0134;" d="M534 1471L815 1471L815 495Q815 262 778 168Q741 74 656 18.50Q571-37 452-37Q209-37 38 176L240 365Q307 289 354 263Q401 237 445 237Q490 237 512 275Q534 313 534 442L534 1471M156 1585L456 1868L675 1868L973 1585L675 1585L567 1716L456 1585L156 1585Z"  horiz-adv-x="983" vert-adv-y="2048"  />

      
      <glyph glyph-name="uni0135" unicode="&#x0135;" d="M-142 1287L158 1570L377 1570L675 1287L377 1287L269 1418L158 1287L-142 1287M130 1088L404 1088L404-36Q404-276 320.50-351Q237-426 118-426Q32-426-87-385L-87-170Q-24-201 26-201Q79-201 104.50-170Q130-139 130-56L130 1088Z"  horiz-adv-x="532" vert-adv-y="2048"  />

      
      <glyph glyph-name="uni0136" unicode="&#x0136;" d="M170 1471L453 1471L453 965L852 1471L1189 1471L675 815L1239 0L907 0L453 653L453 0L170 0L170 1471M507-79Q568-75 603-75Q720-75 778.50-127.50Q837-180 837-250Q837-326 772-386.50Q707-447 580-447Q497-447 386-411L421-280Q491-296 531-296Q637-296 637-225Q637-168 556-168Q532-168 481-173L507-79Z"  horiz-adv-x="1270" vert-adv-y="2048"  />

      
      <glyph glyph-name="uni0137" unicode="&#x0137;" d="M140 1508L413 1508L413 639L815 1088L1157 1088L689 566L1214 0L875 0L413 501L413 0L140 0L140 1508M479-79Q540-75 575-75Q692-75 750.50-127.50Q809-180 809-250Q809-326 744-386.50Q679-447 552-447Q469-447 358-411L393-280Q463-296 503-296Q609-296 609-225Q609-168 528-168Q504-168 453-173L479-79Z"  horiz-adv-x="1188" vert-adv-y="2048"  />

      
      <glyph glyph-name="uni0138" unicode="&#x0138;" d="M140 1088L413 1088L413 639L815 1088L1157 1088L689 566L1214 0L875 0L413 501L413 0L140 0L140 1088Z"  horiz-adv-x="1188" vert-adv-y="2048"  />

      
      </font>
</defs>
</svg>
