<svg width="24" height="24" viewBox="0 0 24 24" fill="none" xmlns="http://www.w3.org/2000/svg">
<path d="M16.9989 3.5H6.99962C3.99985 3.5 2 5 2 8.5V15.5C2 19 3.99985 20.5 6.99962 20.5H16.9989C19.9986 20.5 21.9985 19 21.9985 15.5V8.5C21.9985 5 19.9986 3.5 16.9989 3.5ZM17.4688 9.59L14.3391 12.09C13.6791 12.62 12.8392 12.88 11.9992 12.88C11.1593 12.88 10.3094 12.62 9.65942 12.09L6.52965 9.59C6.20968 9.33 6.15968 8.85 6.40966 8.53C6.66964 8.21 7.13961 8.15 7.45958 8.41L10.5893 10.91C11.3493 11.52 12.6392 11.52 13.3991 10.91L16.5289 8.41C16.8489 8.15 17.3288 8.2 17.5788 8.53C17.8388 8.85 17.7888 9.33 17.4688 9.59Z" fill="white"/>
</svg>
