<svg width="24" height="24" viewBox="0 0 24 24" fill="none" xmlns="http://www.w3.org/2000/svg">
<path d="M21.9685 18.33C21.9685 18.69 21.8885 19.06 21.7185 19.42C21.5485 19.78 21.3285 20.12 21.0385 20.44C20.5486 20.98 20.0086 21.37 19.3987 21.62C18.7987 21.87 18.1488 22 17.4488 22C16.4289 22 15.339 21.76 14.1891 21.27C13.0392 20.78 11.8892 20.12 10.7493 19.29C9.59942 18.45 8.5095 17.52 7.46958 16.49C6.43966 15.45 5.50973 14.36 4.6798 13.22C3.85986 12.08 3.19991 10.94 2.71995 9.81C2.23998 8.67 2 7.58 2 6.54C2 5.86 2.11999 5.21 2.35997 4.61C2.59995 4 2.97993 3.44 3.50988 2.94C4.14984 2.31 4.84978 2 5.58973 2C5.86971 2 6.14968 2.06 6.39966 2.18C6.65964 2.3 6.88963 2.48 7.06961 2.74L9.38944 6.01C9.56942 6.26 9.69941 6.49 9.78941 6.71C9.8794 6.92 9.9294 7.13 9.9294 7.32C9.9294 7.56 9.8594 7.8 9.71941 8.03C9.58942 8.26 9.39944 8.5 9.15945 8.74L8.39951 9.53C8.28952 9.64 8.23952 9.77 8.23952 9.93C8.23952 10.01 8.24952 10.08 8.26952 10.16C8.29952 10.24 8.32952 10.3 8.34952 10.36C8.5295 10.69 8.83948 11.12 9.27944 11.64C9.72941 12.16 10.2094 12.69 10.7293 13.22C11.2693 13.75 11.7893 14.24 12.3192 14.69C12.8392 15.13 13.2691 15.43 13.6091 15.61C13.6591 15.63 13.7191 15.66 13.7891 15.69C13.8691 15.72 13.9491 15.73 14.0391 15.73C14.2091 15.73 14.3391 15.67 14.4491 15.56L15.209 14.81C15.459 14.56 15.699 14.37 15.9289 14.25C16.1589 14.11 16.3889 14.04 16.6389 14.04C16.8289 14.04 17.0289 14.08 17.2488 14.17C17.4688 14.26 17.6988 14.39 17.9488 14.56L21.2585 16.91C21.5185 17.09 21.6985 17.3 21.8085 17.55C21.9085 17.8 21.9685 18.05 21.9685 18.33Z" fill="white" stroke="white" stroke-width="1.5" stroke-miterlimit="10"/>
<path d="M18.4986 9C18.4986 8.4 18.0286 7.48 17.3287 6.73C16.6887 6.04 15.8388 5.5 14.9989 5.5" stroke="white" stroke-width="1.5" stroke-linecap="round" stroke-linejoin="round"/>
<path d="M21.9983 9C21.9983 5.13 18.8686 2 14.9989 2" stroke="white" stroke-width="1.5" stroke-linecap="round" stroke-linejoin="round"/>
</svg>
