<svg width="12" height="20" viewBox="0 0 12 20" fill="none" xmlns="http://www.w3.org/2000/svg">
<path d="M3.69641 11.248H1.32041C0.936406 11.248 0.816406 11.104 0.816406 10.744V7.84001C0.816406 7.45601 0.960406 7.33601 1.32041 7.33601H3.69641V5.22401C3.69641 4.26401 3.86441 3.35201 4.34441 2.51201C4.84841 1.64801 5.56841 1.07201 6.48041 0.736011C7.08041 0.520011 7.68041 0.424011 8.32841 0.424011H10.6804C11.0164 0.424011 11.1604 0.568011 11.1604 0.904011V3.64001C11.1604 3.97601 11.0164 4.12001 10.6804 4.12001C10.0324 4.12001 9.38441 4.12001 8.73641 4.14401C8.08841 4.14401 7.75241 4.45601 7.75241 5.12801C7.72841 5.84801 7.75241 6.54401 7.75241 7.28801H10.5364C10.9204 7.28801 11.0644 7.43201 11.0644 7.81601V10.72C11.0644 11.104 10.9444 11.224 10.5364 11.224H7.75241V19.048C7.75241 19.456 7.63241 19.6 7.20041 19.6H4.20041C3.84041 19.6 3.69641 19.456 3.69641 19.096V11.248Z" fill="#F3F3F3"/>
</svg>
