<svg width="68" height="59" viewBox="0 0 68 59" fill="none" xmlns="http://www.w3.org/2000/svg">
<path opacity="0.2" d="M25.9731 59H0.0152356L6.19666e-05 44.3815C-0.0094716 35.1967 1.08105 27.2739 3.27162 20.6132C5.53079 13.8824 9.30059 7.01129 14.581 0L24.6841 8.09804C22.1472 11.8841 20.2621 15.1444 19.0289 17.8788C17.8643 20.6132 16.7007 24.2591 15.538 28.8164H25.9417L25.9731 59ZM68 59H42.0422L42.027 44.3815C42.0175 35.1967 43.108 27.2739 45.2986 20.6132C47.4891 13.8824 51.2589 7.01129 56.608 0L66.7111 8.09804C64.1742 11.8841 62.2891 15.1444 61.0558 17.8788C59.8913 20.6132 58.7276 24.2591 57.5649 28.8164H67.9687L68 59Z" fill="white"/>
</svg>
