<svg width="162" height="75" viewBox="0 0 162 75" fill="none" xmlns="http://www.w3.org/2000/svg">
<path d="M18.1423 65.585C37.3538 54.912 55.948 48.2297 69.5265 30.125C72.3791 26.3215 85.766 0.688683 72.8099 2.05249C67.2492 2.63782 59.8919 15.5679 57.7065 19.7825C53.27 28.3387 49.7793 35.8243 43.5882 43.4225C35.4189 53.4484 25.4228 64.4367 13.7098 70.51C10.4219 72.2149 0.758729 75.8691 1.97189 69.1967C3.06434 63.1882 26.7123 48.0793 28.4027 57.3767C28.8103 59.6185 26.9842 66.8984 30.8652 66.8984C38.7579 66.8984 49.6316 56.3548 56.5573 53.1084C61.1004 50.9788 67.6291 46.927 72.4815 50.2354C75.3037 52.1597 75.6883 53.765 79.3765 53.765C87.1417 53.765 92.3472 52.1845 99.7332 50.1534C117.732 45.2036 141.993 43.3361 159.982 49.3325" stroke="#4E4E4E" stroke-width="3" stroke-linecap="round"/>
</svg>
